<?xml version="1.0" encoding="utf-8"?>
<!-- Generator: Adobe Illustrator 23.1.0, SVG Export Plug-In . SVG Version: 6.00 Build 0)  -->
<svg version="1.1" id="Layer_1" xmlns="http://www.w3.org/2000/svg" xmlns:xlink="http://www.w3.org/1999/xlink" x="0px" y="0px"
	 viewBox="0 0 1000 1000" style="enable-background:new 0 0 1000 1000;" xml:space="preserve">
<style type="text/css">
	.st0{fill:none;stroke:#F66665;stroke-width:20;stroke-miterlimit:10;}
	.st1{fill:none;stroke:#70D194;stroke-width:20;stroke-miterlimit:10;}
	.st2{fill:none;stroke:#CC7BD6;stroke-width:20;stroke-miterlimit:10;}
	.st3{fill:none;stroke:#2284FC;stroke-width:20;stroke-miterlimit:10;}
	.st4{fill:url(#SVGID_1_);}
</style>
<g>
	<ellipse class="st0" cx="263.99" cy="273.18" rx="36.86" ry="36.9"/>
	<ellipse class="st0" cx="79.25" cy="600.67" rx="36.86" ry="36.9"/>
	<ellipse class="st0" cx="575.23" cy="579.7" rx="36.86" ry="36.9"/>
	<ellipse class="st0" cx="938.84" cy="841.36" rx="36.86" ry="36.9"/>
	<ellipse class="st0" cx="424.43" cy="1014.12" rx="36.86" ry="36.9"/>
	<ellipse class="st0" cx="158" cy="1513.11" rx="36.86" ry="36.9"/>
	<ellipse class="st0" cx="586.96" cy="1415.83" rx="36.86" ry="36.9"/>
	<ellipse class="st0" cx="799.76" cy="93.29" rx="36.86" ry="36.9"/>
	<polygon class="st1" points="91.17,200.5 29,227.74 83.65,268.01 	"/>
	<polygon class="st1" points="591.34,188.76 529.17,216 583.82,256.27 	"/>
	<polygon class="st1" points="943.51,331.83 877.96,349.41 925.94,397.44 	"/>
	<polygon class="st1" points="659.49,883.65 593.94,901.23 641.92,949.27 	"/>
	<polygon class="st1" points="787.01,1096.04 720.85,1111.17 767.02,1160.96 	"/>
	<polygon class="st1" points="387.37,1420.59 321.22,1435.73 367.39,1485.51 	"/>
	<polygon class="st1" points="296.89,1139.65 230.73,1154.78 276.91,1204.57 	"/>
	<polygon class="st1" points="254.16,550.08 188,565.22 234.18,615 	"/>
	<polygon class="st1" points="654.76,1681.57 590.14,1702.31 640.4,1747.96 	"/>
	<polygon class="st1" points="933.67,1457.17 871.07,1483.39 925.06,1524.55 	"/>
	<rect x="268.92" y="74" class="st2" width="37.38" height="37.42"/>
	
		<rect x="732.68" y="484.96" transform="matrix(0.1927 -0.9813 0.9813 0.1927 110.9943 1153.9376)" class="st2" width="48.19" height="49.1"/>
	
		<rect x="363.21" y="650.18" transform="matrix(0.1927 -0.9813 0.9813 0.1927 -349.4041 924.7671)" class="st2" width="48.19" height="49.1"/>
	
		<rect x="4.63" y="989.83" transform="matrix(0.1927 -0.9813 0.9813 0.1927 -972.1782 847.1104)" class="st2" width="48.19" height="49.1"/>
	<rect x="562.15" y="1099.3" class="st2" width="49.1" height="48.19"/>
	
		<rect x="97.63" y="375.94" transform="matrix(0.2947 -0.9556 0.9556 0.2947 -296.8549 398.7692)" class="st2" width="48.19" height="49.1"/>
	<rect x="911.52" y="1123.62" class="st2" width="49.1" height="48.19"/>
	
		<rect x="909.48" y="613.26" transform="matrix(0.7761 -0.6307 0.6307 0.7761 -193.1899 731.597)" class="st2" width="48.16" height="49.13"/>
	<rect x="784.17" y="1662.03" class="st2" width="49.1" height="48.19"/>
	
		<rect x="82.09" y="1667.91" transform="matrix(0.9374 -0.3483 0.3483 0.9374 -582.7159 143.122)" class="st2" width="49.11" height="48.19"/>
	
		<rect x="43.55" y="728.63" transform="matrix(0.9374 -0.3483 0.3483 0.9374 -257.9391 70.8676)" class="st2" width="49.11" height="48.19"/>
	<g>
		<line class="st3" x1="344" y1="423.72" x2="400.13" y2="453.07"/>
		<line class="st3" x1="385.5" y1="410.93" x2="356.96" y2="467.53"/>
	</g>
	<g>
		<line class="st3" x1="13.9" y1="12.78" x2="70.03" y2="42.13"/>
		<line class="st3" x1="55.4" y1="0" x2="26.86" y2="56.59"/>
	</g>
	<g>
		<line class="st3" x1="433.64" y1="58.07" x2="489.78" y2="87.42"/>
		<line class="st3" x1="475.14" y1="45.29" x2="446.6" y2="101.88"/>
	</g>
	<g>
		<line class="st3" x1="198.22" y1="845.55" x2="254.35" y2="874.9"/>
		<line class="st3" x1="239.72" y1="832.77" x2="211.18" y2="889.36"/>
	</g>
	<g>
		<line class="st3" x1="714.31" y1="787.69" x2="770.44" y2="817.04"/>
		<line class="st3" x1="755.81" y1="774.9" x2="727.27" y2="831.5"/>
	</g>
	<g>
		<line class="st3" x1="93.49" y1="1272.42" x2="149.63" y2="1301.77"/>
		<line class="st3" x1="134.99" y1="1259.64" x2="106.45" y2="1316.23"/>
	</g>
	<g>
		<line class="st3" x1="363.27" y1="1661.55" x2="419.4" y2="1690.9"/>
		<line class="st3" x1="404.77" y1="1648.77" x2="376.23" y2="1705.36"/>
	</g>
	<g>
		<line class="st3" x1="655.66" y1="315.53" x2="711.79" y2="344.88"/>
		<line class="st3" x1="697.16" y1="302.75" x2="668.62" y2="359.34"/>
	</g>
	<g>
		<line class="st3" x1="762.9" y1="1404.09" x2="819.03" y2="1433.44"/>
		<line class="st3" x1="804.4" y1="1391.31" x2="775.86" y2="1447.9"/>
	</g>
	<g>
		<line class="st3" x1="943.87" y1="1736.19" x2="1000" y2="1765.54"/>
		<line class="st3" x1="985.37" y1="1723.41" x2="956.83" y2="1780"/>
	</g>
	<g>
		<line class="st3" x1="941.35" y1="137.74" x2="997.49" y2="167.09"/>
		<line class="st3" x1="982.85" y1="124.96" x2="954.31" y2="181.55"/>
	</g>
</g>
<linearGradient id="SVGID_1_" gradientUnits="userSpaceOnUse" x1="500.5" y1="1000" x2="500.5" y2="1">
	<stop  offset="0" style="stop-color:#FFFFFF;stop-opacity:0"/>
	<stop  offset="0.8324" style="stop-color:#F7F7F7"/>
</linearGradient>
<rect x="1" y="1" class="st4" width="999" height="999"/>
</svg>
