<svg height="512" viewBox="0 0 511.28 511.28" width="512" xmlns="http://www.w3.org/2000/svg"><path d="M465.28 135.81c-14.5-26.23-29.56-42.11-31.59-44.67C388.25 39.9 321.93 7.59 248.05 7.59A246.9 246.9 0 0 0 96.83 59c-58.9 45.38-73.41 112.98-73.41 192.98 0 137 90.73 228.79 227.73 228.79 95.95 0 179.27-32.13 220.46-117.53l-.01.01a248.46 248.46 0 0 0-6.32-227.45z" fill="#b930d6"/><path d="M489.5 312.54a247.7 247.7 0 0 1-151.16 51.34c-137 0-248.05-111.06-248.05-248.05 0-19.54 2.27-38.56 6.55-56.8C37.94 104.4 0 175.62 0 255.63c0 137 111.06 248.06 248.05 248.06a248.04 248.04 0 0 0 223.56-140.45l-.01.01a246.1 246.1 0 0 0 17.9-50.72z" fill="#8d1ba5"/><path d="M441.88 136.09h-49a8.44 8.44 0 0 1-8.45-8.45v-11.02a8.44 8.44 0 0 1 8.45-8.45h49a8.44 8.44 0 0 1 8.44 8.45v11.02a8.44 8.44 0 0 1-8.44 8.45zM144.94 136.09h-49a8.44 8.44 0 0 1-8.45-8.45v-11.02a8.44 8.44 0 0 1 8.44-8.45h49a8.44 8.44 0 0 1 8.45 8.45v11.02a8.44 8.44 0 0 1-8.44 8.45z" fill="#05cdff"/><path d="m506.45 272.83-.78-2.46-39.76-121.49a39.95 39.95 0 0 0-37.97-27.52h-29.58a31.25 31.25 0 0 0-28.24 17.88H165.58a31.25 31.25 0 0 0-28.25-17.88h-9.59L53 304.01l81.53 71.42.13-.04 24.14-84.94h.53a20.67 20.67 0 0 1-1.34-6.4c-.45-10.13 8.95-18.76 18.76-18.76h244.4l.28.01h.16c10.13-.46 18.76 8.94 18.76 18.75v96.13c48.44-8.77 81.06-58.22 66.1-107.35z" fill="#453d49"/><g fill="#2b282d"><path d="m133.27 380.23 2.37-8.35a117.5 117.5 0 0 1-49.07-72.62c-3.6-16.61 9.1-32.21 26.1-32.49l.66-.01c26.68-.77 48.63-22.26 49.93-48.92.85-17.46-7-33.13-19.6-43.05-16.02-12.62-22.23-34.04-15.92-53.43h-20.9a39.95 39.95 0 0 0-37.98 27.57L29.3 270.37c-.27.8-.52 1.62-.77 2.43C12.23 326.3 53.05 380.23 109 380.23zM468 368.25l-18.16-63.89c-5.46-19.21-1.19-40.09 12-55.08a51.34 51.34 0 0 0 12.78-36.3c-1.14-26.58-22.84-48.17-49.44-49.19a51.51 51.51 0 0 0-53.53 52.01c.24 23.17-18.24 42.17-41.41 42.17H206.82l3.22 32.47h166.14l31.34 110.27a24.79 24.79 0 0 0 33.06 14.14 117.04 117.04 0 0 0 42.91-31.69 24.72 24.72 0 0 1-15.5-14.91z"/><path d="m138.15 361.81-.17.61a24.8 24.8 0 0 1-33.06 14.14 117.49 117.49 0 0 1-69.86-123.9l-5.76 17.7a117.46 117.46 0 0 0 65.1 144.5 24.79 24.79 0 0 0 33.05-14.14l11.05-38.9h-.35zM396.55 361.81l.17.61a24.8 24.8 0 0 0 33.06 14.14 117.49 117.49 0 0 0 69.86-123.9l5.76 17.7a117.46 117.46 0 0 1-65.09 144.5 24.79 24.79 0 0 1-33.06-14.14s-10.82-38.9-10.7-38.9z"/></g><path d="M177.57 235.72a43.94 43.94 0 0 0-29.07 10.94l29.07 77.27a44.1 44.1 0 0 0 0-88.2z" fill="#f73c9a"/><path d="M188.42 313.36a30.72 30.72 0 0 0 19.85-29.94 30.84 30.84 0 0 0-28.66-29.47 30.61 30.61 0 0 0-18.28 4.58c-3.84 2.39-8.4-1.97-6.22-5.93l.21-.37c2.5-4.42-3-8.92-6.82-5.57a44 44 0 0 0-15.01 34.66c.76 23.15 19.77 42.01 42.93 42.6 4.57.11 8.99-.47 13.16-1.64 2.42-.69 2.16-4.23-.35-4.49l-.22-.02c-2.37-.26-2.82-3.57-.6-4.4z" fill="#e0248b"/><circle cx="177.57" cy="279.83" fill="#2b282d" r="30.73"/><circle cx="177.57" cy="279.83" fill="#594d5e" r="24.19"/><circle cx="177.57" cy="279.83" fill="#453d49" r="15.09"/><path d="M353.7 235.72a43.94 43.94 0 0 0-29.06 10.94l29.07 77.27a44.1 44.1 0 0 0 0-88.2z" fill="#f73c9a"/><path d="M364.56 313.36a30.72 30.72 0 0 0 19.85-29.94 30.84 30.84 0 0 0-28.66-29.47 30.61 30.61 0 0 0-18.28 4.58c-3.84 2.39-8.4-1.97-6.22-5.93l.2-.37c2.5-4.42-3-8.92-6.81-5.57a44 44 0 0 0-15.01 34.66c.76 23.15 19.77 42.01 42.93 42.6 4.57.11 8.99-.47 13.15-1.64 2.43-.69 2.17-4.23-.34-4.49l-.22-.02c-2.37-.26-2.82-3.57-.6-4.4z" fill="#e0248b"/><circle cx="353.71" cy="279.83" fill="#2b282d" r="30.73"/><circle cx="353.71" cy="279.83" fill="#594d5e" r="24.19"/><circle cx="353.71" cy="279.83" fill="#453d49" r="15.09"/><circle cx="111.8" cy="204.36" fill="#2b282d" r="51.51"/><circle cx="423.15" cy="204.36" fill="#2b282d" r="51.51"/><path d="M331.36 231.97H205a11.27 11.27 0 0 1-11.27-11.27V152.2c0-6.23 5.05-11.27 11.27-11.27h126.37c6.23 0 11.27 5.04 11.27 11.27v68.51c0 6.23-5.04 11.27-11.27 11.27zM173.3 191.19a9.03 9.03 0 0 1-9.03-9.04v-13.23a9.03 9.03 0 1 1 18.07 0v13.23a9.04 9.04 0 0 1-9.04 9.04zM361.78 189.52a9.03 9.03 0 0 1-9.03-9.04v-13.22a9.03 9.03 0 1 1 18.07 0v13.23a9.03 9.03 0 0 1-9.04 9.03z" fill="#453d49"/><path d="M331.36 222.4H205a11.27 11.27 0 0 1-11.27-11.27V142.6c0-6.22 5.05-11.27 11.27-11.27h126.37c6.23 0 11.27 5.05 11.27 11.27v68.52c0 6.22-5.04 11.27-11.27 11.27z" fill="#2b282d"/><path d="M216.49 154.77h103.13" fill="none" stroke="#5ab4ff" stroke-linecap="round" stroke-miterlimit="10" stroke-width="5.74"/><path d="M173.3 181.61a9.03 9.03 0 0 1-9.03-9.03v-13.23a9.03 9.03 0 1 1 18.07 0v13.23a9.04 9.04 0 0 1-9.04 9.03zM361.78 179.95a9.03 9.03 0 0 1-9.03-9.04v-13.23a9.03 9.03 0 1 1 18.07 0v13.23a9.03 9.03 0 0 1-9.04 9.04z" fill="#2b282d"/><circle cx="423.15" cy="180.72" fill="#ffc305" r="13.34"/><circle cx="423.15" cy="228" fill="#be5ab9" r="13.34"/><circle cx="446.79" cy="204.36" fill="#f73c9a" r="13.34"/><circle cx="399.51" cy="204.36" fill="#5ab4ff" r="13.34"/><circle cx="111.69" cy="180.72" fill="#ffc305" r="13.34"/><circle cx="111.69" cy="228" fill="#be5ab9" r="13.34"/><circle cx="135.33" cy="204.36" fill="#f73c9a" r="13.34"/><circle cx="88.05" cy="204.36" fill="#5ab4ff" r="13.34"/></svg>