<svg id="svg" xmlns="http://www.w3.org/2000/svg" viewBox="0 0 400.24 296.47"><defs><style>.cls-1{fill:#54218e;fill-rule:evenodd;}</style></defs><title>head</title><g id="svgg"><path id="path0" class="cls-1" d="M25.31-139.16c-2,5.35-2.1,5.66-2.55,5.8-.25.08-3.92,1.56-8.15,3.3s-9.13,3.7-10.88,4.39c-3,1.16-3.19,1.29-3.19,2,0,1.07-2.49,2,19-6.74,14.69-6,13.75-5.4,12.64-7.54-.21-.41-.69-1.51-1.07-2.45-.66-1.65-.71-1.7-1.81-1.7s-1.1-.25-3,5c-.72,2.06-1.47,3.22-1.47,2.27a10.85,10.85,0,0,1,.74-2.33,13.37,13.37,0,0,0,.74-2.14,3.51,3.51,0,0,1,.39-1.06c.77-1.49.81-1.78.23-1.78-.42,0-.79.66-1.61,2.89m30-1c-.41,6.31-7.09,11.62-23.93,19-6.46,2.84-6.59,2.9-10.21,4.43l-4.59,2c-2.15.93-8.2,3.23-11.4,4.34C.19-108.75.54-109,.54-107.67a2.39,2.39,0,0,0,.15,1.15c.24,0,3.78-1.22,4.74-1.64,1.34-.58,8.64-3.51,13.32-5.35,17.36-6.83,25.46-10.8,31.13-15.26,2.42-1.9,2.73-1.76,2.15,1-.36,1.65-1,1.82-1.1.32-.17-1.72-.94-.91-.94,1a1.8,1.8,0,0,1-.3,1.18c-.17.11-.29-.19-.29-.7,0-1.78-1.06-1.3-1.24.55-.15,1.64-19.31,11-42.51,20.71L.54-102.61v1c0,.72.12,1,.37.88L5-102.31c18.36-7.26,47.07-21.09,50.14-24.16,2.59-2.6,3.78-8.28,3-14.2L57.9-142H55.39l-.13,1.85m41.81-1.18c0,10.58,6.84,17.46,17.76,17.91,8.17.33,11.62-2,17.77-11.86.89-1.43,2.31-3.53,3.16-4.66L137.3-142h-1.91c-1.88,0-1.91,0-1.91.82a2.86,2.86,0,0,1-.27,1.22c-.41.65-.91.09-.91-1s0-1-1.19-1h-1.18l-1.9,3.93a32.29,32.29,0,0,0-3.06,8.61c-.34,1.94-5.49,4-9.92,4-8.82,0-15.87-6.59-15.91-14.88V-142h-1c-.88,0-1,.1-1,.67m8.28.09c-1.47,3.87,5.09,8.25,8.94,6,2.27-1.34,7.36-6.72,6.37-6.72-.62,0-1.35.52-2.94,2.08-4,3.89-6.11,4.48-9,2.49-1.8-1.2-2.31-2.16-1.85-3.48.4-1.14.43-1.09-.44-1.09a1,1,0,0,0-1,.76m71.82-.21a22.32,22.32,0,0,0,.08,7c.87,2.09.67,2,15.89,4.11l8.73,1.19c2.82.39,5.13.64,15.1,1.67,11,1.13,15.11-2.1,16.74-13.14l.21-1.41h-2.34l-.51,2.74c-1.53,8.17-3.19,10-9.11,10-2.38,0-13.51-1-15.35-1.34-.41-.08-2.87-.41-5.48-.73s-6.73-.86-9.17-1.2l-8.38-1.14c-4.28-.56-4.4-.62-4.69-2.08-.19-.95-.17-1,.51-.78,3.86,1.2,3.69,1.18,25.44,3.59,20.57,2.28,21.61,2,24.45-6.21.91-2.62.9-2.84-.11-2.84-.74,0-.94.25-2.05,2.59-2.61,5.5-4.52,6.34-12.38,5.41-1.46-.17-5.19-.57-8.29-.9-22.7-2.35-27.38-3.34-27.38-5.78,0-1.46-1.5-2.07-1.91-.77m11.09-.32c0,.81,1,3,1.36,3,1.23,0,.69-3.06-.56-3.2-.44,0-.8,0-.8.17m3.55,0a16.81,16.81,0,0,0,1.16,3.4c.69.78,1.25-.58.83-2s-2-2.46-2-1.39m3.57.12c.1,2.06,1.76,4.61,2.22,3.42.39-1-.61-3.62-1.44-3.71-.52-.06-.79,0-.78.29m3.83.47c0,1.67.89,3.67,1.59,3.57s.7-.21.12-2.61c-.46-1.93-1.71-2.63-1.71-1m85.86,0c-7.63,3.76-18.08,14.59-21,21.76-1.67,4.09-2.76,12.94-1.72,14,.2.2,6,1.72,11.63,3l7,1.65,15.1,3.6c1.71.4,3.52.86,4,1,2.23.71,2.35.66,8.41-3.66l9.82-7,5-3.56c2-1.38,4-2.87,4.52-3.3l.92-.79.09-9.34.09-9.34-1.72-.46c-4.87-1.32-4.78-1.27-5.16-2.54-.51-1.71-.85-1.83-10.76-3.72-5-.95-7.7-1.6-7.8-1.88s-.6-.31-1.22-.31h-1.11l-.51,2.35c-.57,2.66-1,2.94-3.57,2.55-1.36-.2-1.63-.86-1.63-3.9v-1l-4.37,0c-4.14,0-4.46.05-6,.81M366.52-140c-4.3,4.32-3.82,13.91,1.37,27.31,6.4,16.53,13.76,19.84,29.69,13.35a17,17,0,0,1,2.59-.91c.23,0,.37-.41.37-1,0-1.28,0-1.29-3.48.15-16.7,6.86-23.38,2.31-29.78-20.28-1.51-5.34-1.89-9.26-.52-5.48,3.65,10.13,8.17,19.35,10.73,21.87,3.31,3.27,9.56,3.08,21.05-.62l2-.64v-2.49l-1.85.57c-11,3.39-16.31,4.24-18.41,2.94-3-1.84-7.45-10.8-11.83-23.71-2.69-7.95-2.66-8.16,1.85-11.58l1.91-1.44H368.5l-2,2m21.16-1.33c.21.69,1.37,3.55,2.07,5.11.22.48,1.08,2.55,1.91,4.59s1.7,4.1,1.93,4.58.84,1.89,1.35,3.11c1.33,3.19,1.3,3.17,3.63,2.17,1.74-.74,2-.93,2-1.65,0-1,0-1-1.82-.17s-1.37,1.32-4.28-5.53c-1.24-2.93-2.49-5.85-2.78-6.49l-.52-1.15,1.15-2.5c1.32-2.88,1.29-2.74.69-2.74-.27,0-.77.67-1.21,1.63a7.6,7.6,0,0,1-1,1.79c-.54.34-.65-.82-.17-1.83a5.42,5.42,0,0,0,.49-1.3c0-.46-.81-.33-1,.16s-.78.57-.78,0c0-.3-.3-.45-.91-.45-.8,0-.88.08-.7.67M203-141.44c-.66.4.54,4.43,1.31,4.43s.8-.84.29-2.67-.88-2.21-1.6-1.76m90.09.76c.12,1,.07,1.09-1.2,1.64s-3.3,2.33-3.3,2.8c0,.08-.21,2-.47,4.18-.56,4.78-.5,5,1.91,6.23,6.16,3.21,15.09,2.23,15.58-1.71.09-.73.36-2.69.6-4.35.74-5.09.38-6.18-2.22-6.75-1-.22-1.4-.66-1-1.09s3.07.16,9.55,1.53c1.54.33,3.64.75,4.66.93,2.19.41,2.25.59.59,2a79.4,79.4,0,0,0-15.29,18.05,10,10,0,0,1-1.92,2.74c-.34,0-3.65-.77-6.65-1.54-1.24-.32-1.27-.36-1.09-1.31.56-3-.57-5.12-3.21-6-4.14-1.45-8.73-.17-9.25,2.58-.25,1.36-.29,1.36-3.21.61l-2.57-.66.17-.88c.63-3.17,7.56-11.34,15.79-18.61,1.9-1.67,2.33-1.73,2.5-.31m-86.68-.1c-.31.8.89,3.91,1.51,3.91s.72-.95.16-3c-.35-1.27-1.33-1.78-1.67-.88m-177.19.91a1.63,1.63,0,0,1-.26,1,8.7,8.7,0,0,0-.77,1.85c-.45,1.4-1.1,2.17-1.5,1.77a3.49,3.49,0,0,1,.41-1.45c.3-.71.78-1.93,1.07-2.71.52-1.42,1.05-1.63,1.05-.41M210.17-140c0,2.11,1.2,4.34,1.93,3.59s-.43-4.22-1.3-4.35c-.52-.08-.63.05-.63.76M131.7-139c0,1.31-.75,2.75-1,2-.46-1.46-.47-2.16,0-2.83.63-1,1-.63,1,.87m-89.85-.82c-2.74,1.36-3,5.54-.44,7.06a6.4,6.4,0,0,0,5.21-.13c4.59-2.84.1-9.35-4.77-6.93m242,4.06c-6.55,6.45-10.39,11.81-10.68,14.86-.09,1,.09,1,4.49,2.21,1.8.48,1.91.56,2.22,1.63,1.13,4,8,5.71,11.27,2.8l1-.89,4.23,1.09c2.32.59,4.49,1.14,4.82,1.21s1-.39,2.27-2.18c4.9-6.7,13.66-15.55,17.33-17.5.59-.31,4.51.43,5,.95a15.49,15.49,0,0,1-2.34,2.15c-1.35,1.11-2.52,2.1-2.6,2.18s-1.08,1-2.22,1.93c-10.49,9-15.84,17.65-15.84,25.6,0,1.79-.39,1.88-4.31.92-5.55-1.36-12.4-3-16-3.86-7.33-1.73-7.63-1.83-8.54-2.8a40.55,40.55,0,0,1-4.79-7.42c-.77-1.47-1.8-3.39-2.3-4.26-2-3.48,3.66-10.62,15-19.12,6.88-5.14,7.45-5,1.87.5m-238.1-2.46a2.28,2.28,0,0,1,.1,4c-2.81,1.45-5.61-.57-4.29-3.1a2.82,2.82,0,0,1,4.19-.92M30-137.07c-.26.52-.59.87-.75.78a.31.31,0,0,1-.13-.41,8,8,0,0,0,.46-1.06c.21-.54.42-.73.61-.54s.12.62-.19,1.23m346.36,0c-3,1.19-3.27,1.61-2.3,3.31.67,1.17.55,1.39-1.18,2.21-1.92.91-1.93,1-.71,4.05s1.39,3.15,3,2.36,1.83-.81,2.28.57c.63,1.92.84,2,3.88.84s3.18-1.27,2.52-2.93-.63-2,1.11-2.77,2.17-1.2,1.73-1.75a3.92,3.92,0,0,1-.5-1.1c-1-3.35-1.65-4-3.3-3.11-1.4.73-1.79.57-2.37-1-.82-2.18-.61-2.15-4.18-.72M129.63-135.9c0,1.14-2,4.73-2.29,4-.15-.45,1.71-5.12,2-5.12.14,0,.25.5.25,1.11m164.14-.38c.66,1,3.31,1.76,5.17,1.49,2.34-.33,2.75-.5,3-1.23s.87-.88,1.78-.4.18,1.63-1.34,2.36c-3.4,1.65-12.34-.5-10.35-2.49.66-.66,1.17-.58,1.72.27m85.71,1.7c.53,1.71.86,1.85,2.68,1.13,1.59-.63,1.67-.6,2.27.84s.57,1.49-1,2.16c-2.12.93-2.14,1-1.67,2.52.57,1.89.53,2.14-.4,2.49-2.06.79-2.3.72-2.86-.74-.67-1.75-.77-1.8-2.51-1s-2,.64-2.25-.61a2.23,2.23,0,0,0-.47-1c-.68-.42-.16-1.1,1.36-1.77,1.78-.79,1.86-1,1.14-2.81-.55-1.38-.45-1.57,1.23-2.19s2-.49,2.47,1.08M55.94-133.33c-.72,3.2-2.7,6.35-2.7,4.29a3.59,3.59,0,0,0-.28-1.43c-.22-.41,0-.88.93-2.13a19.82,19.82,0,0,0,1.52-2.28c.57-1.25.93-.23.53,1.55m265-1.62c.12.47-.33.91-2.26,2.22a49.27,49.27,0,0,0-5.07,4.14,19.91,19.91,0,0,1-2.77,2.38c-.15-.15,1.89-2.33,4.84-5.18,4.55-4.39,5-4.68,5.26-3.56M121.4-133.7c-.65.65-.44,1.72.34,1.72a1.83,1.83,0,0,0,1.67-1.58c0-.59-1.46-.69-2-.14m173.18,1.91c3,.7,6.92.71,8.17,0s1.34-.41.94,2.29c-.49,3.31-1.49,3.77-6.92,3.16s-6.84-1.53-6.54-4.39c.25-2.46.31-2.56,1.33-2a18.83,18.83,0,0,0,3,.94M28.4-130.41c-1.53.48-3.28,2.29-3.28,3.37,0,2.55,3.72,3.36,6.52,1.42,3.82-2.65,1.37-6.26-3.24-4.79m298.42,1.85c0,1.41-.14,1.51-1.32,1-1-.44-.95-.79.06-1.76s1.26-.84,1.26.79M109.5-129.68c0,1.57,5.78,2.48,7.84,1.23l1.18-.71-1.18-.21c-2.39-.43-7.84-.64-7.84-.31m-77.63,1.27c.1.88-.54,1.53-2,2-2.26.76-3.93.06-2.81-1.18,1.59-1.75,4.63-2.28,4.8-.83m293.36,1.78c1.24.71,1.59,1.07,1.59,1.63,0,1-.34.91-2.56-.33-2-1.11-2.2-1.4-1.36-1.89.68-.4.53-.44,2.33.59M16-125.42c-2.32.66-3.85,2.68-3.28,4.32.82,2.34,5.54,2,7.49-.59s-.41-4.83-4.21-3.73m307.52.87c2.71,1.45,3.59,2.19,3.12,2.66-.23.23-.81,0-2.06-.64-4.29-2.35-4.31-2.37-3.94-2.81s.26-.6,2.88.79m-304.2.92c.25.4.17.66-.35,1.21-1.17,1.25-4.33,1.86-4.7.91-.63-1.66,4.1-3.64,5.05-2.12m303.82,1.5,3.26,1.86.08,2.43.09,2.43-1.39,1c-.77.53-3.07,2.17-5.12,3.64s-5.06,3.63-6.69,4.79l-4.44,3.16c-2.53,1.8-3.84,2.71-4.27,3-.63.38-.23-3,.68-5.85,1.67-5.24,5.05-10,11.35-16,2.89-2.75,2.44-2.72,6.45-.44m-33.93-.09c4.22,1.21,2.38,5.63-2.34,5.63-4.35,0-7-3.52-4-5.24a10.45,10.45,0,0,1,6.34-.39m-286,1.51c-2.12,1-2.67,1.63-2.67,3.25,0,2.42,2.87,3.28,5.69,1.71,4.74-2.65,2-7.21-3-5m3.84,1.31c.84,1-1.51,2.82-3.67,2.82-.73,0-1.14-.16-1.27-.49-.6-1.57,3.84-3.66,4.94-2.33m376.16.7c-3.06,1.87-3.74,5.31-1.46,7.4,2.72,2.49,7.84,0,7.84-3.87a4.29,4.29,0,0,0-6.38-3.53m4.07,1.75c1.72,1.72.26,4.71-2.44,5-1.65.19-2.6-.48-2.84-2-.43-2.76,3.37-4.94,5.28-3M268-113c1.12,2.12,2.61,4.71,3.32,5.76,1.32,2,1.34,2.45.1,1.83-.94-.47-6.19-9.49-6.2-10.64,0-1.6.76-.75,2.78,3m15.43-3a8.17,8.17,0,0,0,5.74.46c1.54-.55,1.95-.36.91.44-2,1.51-7.39.8-8.1-1.06-.21-.55-.21-.55,1.45.16m-16.81,5.25c.81,1.43,1.71,3,2,3.54.6,1,.42,1.59-.31,1a11.33,11.33,0,0,1-1.35-1.9c-.5-.83-1.31-2.15-1.81-2.93-.83-1.31-1-2.29-.29-2.29a10.82,10.82,0,0,1,1.74,2.59m129.93.25c-.59.58-.6,1,0,1.2s1.92-.65,1.92-1.23-1.31-.57-1.9,0m-131,2.07a7.45,7.45,0,0,1,.81,1.63c0,.29-1.46.06-1.83-.28a6.68,6.68,0,0,1-.27-2.48c.07-.52.52-.12,1.29,1.13m113.71-.18c2.44,2,8.2,2.71,11.66,1.49,2.64-.93,2.4-1-1.94-1a35.34,35.34,0,0,1-9.82-1c-.73-.22-.73-.21.1.45m-227.48,1.79-5.48.7c-8.72,1.11-9,1.16-9,1.65,0,.25.15,1.49.35,2.75l.34,2.3,1.21,0a23.16,23.16,0,0,0,2.69-.26c2.07-.34,2.09-.32,2.46,2.88.42,3.62,1.47,11.94,1.72,13.63.19,1.27.2,1.27,1.26,1.12.59-.09,1.84-.25,2.78-.35,2-.22,2-.26,1.39-4-.17-1-.49-3.56-.73-5.57s-.58-4.71-.78-6c-.43-2.81-.64-2.57,2.74-3.12s3-.12,2.61-3.07c-.42-3.34-.13-3.12-3.53-2.66m-25.46,3.28c-1.06.13-2.73.32-3.71.42s-2.5.29-3.38.45a18.79,18.79,0,0,1-2.6.29c-1.33,0-1.38.26-.84,4.11.25,1.82.46,3.4.46,3.52s.13,0,.28-.22.39-.33.52-.2,0,.42-.31.64c-.58.42-.53,1,1.14,13,.48,3.5.06,3.14,3.25,2.74s2.81,0,2.42-4.07c-.25-2.66-.44-2.49,3.26-2.78l2.65-.21.37,2.77c.45,3.41.26,3.26,3.29,2.76l2.62-.42c.16,0-.1-2.79-.69-7.36l-.56-4.24-1.49.09-1.5.1L131.22-95c-.91-7.48-1.34-9-2.56-8.84l-2.28.28m-22.8,2.78c-1.55.2-5.21.66-8.13,1S90.09-99,90-99s1.47,14.13,2.53,21.77l.23,1.63,1.55,0c.86,0,2.14-.13,2.85-.23l1.29-.2-.14-1.39c-.07-.77-.23-2-.35-2.74-.27-1.62-.15-2.06.56-2.06a.81.81,0,0,0,.7-.37c.12-.3.15-.3.17,0,0,.45,1.26.49,1.7.06.59-.6,3.22-.22,3.11.44a15.4,15.4,0,0,0,.26,2.91l.36,2.33,2-.19c1.08-.1,2.34-.26,2.81-.34l.85-.17-.21-2.4a13.12,13.12,0,0,0-.5-2.94,13.68,13.68,0,0,1-.43-3.11c-.22-3.72-.3-4-1.09-3.75l-.66.2.7-.67a1.29,1.29,0,0,0,.52-1.29c-.09-.34-.4-2.66-.67-5.14-.47-4.24-.54-4.52-1.11-4.48-.34,0-1.89.2-3.43.4m24-.15c0,.15-.3.44-.67.63-.66.35-.66.35-.1-.28s.77-.77.77-.35m113.26,1.08c-8.91,2.15-14.69,11.42-11.65,18.67,5.21,12.38,22.37,15.24,28.09,4.68,6.64-12.25-3.39-26.51-16.44-23.35M81.91-98.08a53.31,53.31,0,0,1-5.3.74c-4.9.56-11.3,1.44-11.4,1.57a53.88,53.88,0,0,0,.84,5.42,19.58,19.58,0,0,0,2.84-.22c3.31-.39,3-.67,3.49,3.38.21,1.82.57,4.79.81,6.58s.52,4.06.63,5c.28,2.61.22,2.56,3.25,2.22,3.18-.36,3-.09,2.54-3-1.37-9.62-2-15.34-1.6-15.34.62,0,5.26-.64,5.44-.75a20.28,20.28,0,0,0-.47-5c-.16-.74-.68-1.06-1.07-.67m167.19.75c6.78,2.49,10.07,13,6.23,19.88-5.23,9.35-22.51,5.06-24.45-6.07-1.6-9.18,9-17.21,18.22-13.81M125.43-94.71c.49,3.47.44,3.59-1.37,3.59H122.6L122.16-94c-.53-3.43-.42-3.69,1.52-3.57l1.36.09.39,2.78M54-94.53c-1.62.21-4.22.53-5.77.71s-3.26.41-3.81.5l-1,.17.2,1.68c.11.92.4,3.41.64,5.53s.57,4.68.75,5.7l.32,1.85,1.08-.14,4.19-.59c1.71-.25,3.91-.49,4.88-.53l1.78-.07.16,1.42c.2,1.71.38,1.58-2.7,2-5.9.74-8.93,1.17-9,1.28a29.46,29.46,0,0,0,.83,5.4c.15.15,4.85-.37,16.15-1.81,1.44-.18,1.57-.7,1-4-.16-.88-.5-3.4-.75-5.59-.71-6.18.19-5.57-6.8-4.61-6.26.87-5.74.86-5.91.1-.6-2.68-.76-2.58,5-3.34,2-.26,3.57-.5,3.6-.54a50.88,50.88,0,0,0-.65-5.17C58-95,57.91-95,54-94.53m48.75,1.37c.11.75.24,2.08.3,3l.1,1.59-1.92.36c-3.72.69-4.08.6-4.29-1-.11-.78-.32-2.06-.47-2.87-.36-1.82-.28-1.89,2.41-2.21,3.56-.42,3.65-.4,3.87,1.19m144.15-.23c-.41.22-2.61,1.55-4.89,3s-5,3-6,3.64c-2.7,1.55-2.73,2.14-.18,3.34,1.53.72,1.49.59.72,2.17s-.57,2.09,1.27,2.9c3.55,1.54,4.6,2,6.24,2.78,2.08,1,2.41.88,3.17-.89.46-1.09.69-1.33,1.1-1.16,2.9,1.17,3.21.66,2.43-3.86-.34-1.95-.81-4.68-1-6.06-1.08-6.39-1.21-6.67-2.8-5.82m-41.77.77c-7.11,1.9-12.27,7.83-12.27,14.12v3.29l1.3,2.55c5.87,11.58,22.38,13.48,27.57,3.17C228-81.9,217.84-96,205.11-92.62m42.34,3.5c.18,1.1.62,3.49,1,5.31.69,3.68.62,4.45-.37,3.93S246.62-80,246-78.54s-.27,1.64-4.3-.19c-3.7-1.68-3.61-1.57-2.78-3.21s.78-1.68-.63-2.39-1.66-.65,4-4.1c5.28-3.21,4.76-3.14,5.17-.69m-33.17-.69c5.91,3,8.75,11.91,5.9,18.45-5,11.49-25.14,5.94-25.11-6.93,0-8.75,11.35-15.55,19.21-11.52m-3.37,3.17c-1.16.38-3.78,1.18-7.11,2.17-3.91,1.16-4,1.21-4,2.15,0,1.78,4.29,12.66,5,12.76s8.26-2.3,11.5-3.56c1.45-.56,1.42-.8-1-7.33-2.52-6.88-2.48-6.83-4.43-6.19m2.31,7c.95,2.54,1.68,4.66,1.63,4.71a72.69,72.69,0,0,1-9.16,2.88,18.87,18.87,0,0,1-1-2.44c-.42-1.22-1.1-3.16-1.51-4.3-.85-2.36-.92-3.1-.32-3.1a54.56,54.56,0,0,0,6.39-1.94c2.11-.82,2.06-.87,3.94,4.19m179.69-4.13a3.06,3.06,0,0,0-1.39,1.23c-.71,1.08-1,1.94-3.38,8.72-1.33,3.83-2.92,8.41-5,14.28-.74,2.12-1.85,5.11-2.47,6.66-2.41,6-2.19,8.64.85,10A117.88,117.88,0,0,0,397-37.69c1.55.44,3,.84,3.18.91s.37-.21.36-.84v-1l-6.29-2c-14.74-4.78-14.36-4.43-12-11,.58-1.63,1.68-4.76,2.45-6.95s2-5.73,2.72-7.85,1.51-4.32,1.73-4.89,1-2.75,1.75-4.86c2-5.54,2.83-6.2,6.76-5.18,2.8.73,2.89.72,2.89-.24,0-1.2-5.28-2.75-7.63-2.25M.6-81.33l.09.92L14-76c13.86,4.61,14.52,4.86,15.43,5.86.67.74.56,3.71-.2,5.39-.25.56-1.73,4.81-3.28,9.45-6,17.91-6.61,19.59-7.53,20.51C17-33.4,15.64-33.57,7.76-36.18S.48-38.68.6-37.5c.09.89.21,1,2.76,1.79l7.24,2.35c9,2.92,8.8,3,13.42-10.69,1.73-5.13,4-11.65,4.95-14.5,3.38-9.69,3.49-11.89.69-13.74-.88-.58-28.17-9.95-29-9.95-.09,0-.13.41-.08.91m393.2,3a7.91,7.91,0,0,0-.75,1.85c-.25.82-1.34,4-2.43,7.11s-2.28,6.49-2.64,7.55c-1.54,4.45-4,11.49-4.44,12.69a9.27,9.27,0,0,0-.47,1.68c0,.41,2,1.18,10.81,4.14l6.22,2.11c.3.11.44,0,.44-.4s-.38-.69-1.4-1c-5.62-1.88-14.2-4.88-14.49-5s.21-1.82,1.59-5.77c1.06-3,2.11-6.08,2.33-6.73s1.07-3.12,1.9-5.48,2-5.89,2.71-7.85c1.47-4.3,1.33-4.14,3.11-3.59l2.85.9c1.65.52,2.2-.35.59-.94-3.78-1.4-5.48-1.73-5.93-1.18M.54-76.32c0,.45.74.78,3.93,1.78,20.29,6.37,21.83,6.87,22,7.08a15.78,15.78,0,0,1-.85,3c-.54,1.54-1.59,4.6-2.34,6.79s-2.51,7.33-3.92,11.4-2.7,7.84-2.87,8.37c-.4,1.19.57,1.38-8-1.56-8.2-2.8-7.87-2.71-7.86-2,0,.4.69.75,2.88,1.46,1.59.51,5.06,1.69,7.71,2.61a36.27,36.27,0,0,0,5.32,1.58c.48-.1.73-.74,5.09-13.57,1-2.85,2.77-8.1,4-11.68s2.23-6.66,2.23-6.85c0-.46-.56-.67-8.44-3.08-3.74-1.15-7.34-2.27-8-2.49-1.25-.43-8.6-2.75-10-3.15-.68-.2-.82-.15-.82.31m394.59,1.18a2.39,2.39,0,0,0-.26,3.36,2.24,2.24,0,0,0,3.6-1.76,2,2,0,0,0-3.34-1.6m2.46.92c.34.62.21,1.45-.23,1.45s-1.28-1.65-1.05-1.88,1-.18,1.28.43m-1.49,1.66c0,.59-.53.46-.89-.21-.44-.83,0-1.44.49-.72a2.05,2.05,0,0,1,.4.93M4.25-68.25c-.06.2-.46,2.24-.89,4.51s-1,5.44-1.35,7c-.84,4.15-.89,4,1.27,4.64,2.35.72,1.77,1.39,5.72-6.7s4-7.26-.58-8.77c-3.54-1.17-4-1.25-4.17-.7m307.82.9c-.23.28-.2.75.13,1.7,1,2.76.11,4.8-3.89,9.36-3.67,4.19-4.21,6-3,10.3.53,1.8.46,2.54-.22,2.54s-1.69-4.42-1.68-6.6c0-2.36.71-3.6,4-7s4.27-5.38,3.74-7.38c-.39-1.42-1.54-2.89-2-2.58a1.1,1.1,0,0,0,.09,1.65c1.68,1.39.62,4-3.24,8-4.4,4.53-4.58,5.42-2.81,13.8.15.71-.06,1-.83,1.17-.46.1-2.55.88-4.65,1.72l-3.82,1.55L292.57-36c-1.44,3.53-1.53,4.4-.67,6.58.34.86.86,2.23,1.17,3s.83,2.21,1.18,3.11,1.15,3,1.78,4.74,1.77,4.7,2.52,6.66,1.64,4.33,2,5.28c.86,2.47.41,2.46,7.64.17l8-2.53L324-11.49c5.79-1.85,23.55-7.46,29-9.18l4.44-1.43c1.47-.47,3.27-1,4-1.22,2.23-.59,2.91-1.71,4-6.56l.5-2.27-1-2.62c-.56-1.44-1.71-4.28-2.55-6.32s-2.2-5.49-3-7.69c-1.73-4.65-3.34-7.88-4.21-8.45q-1.62-1.05-23.86,5.88c-2.85.89-6.18,1.91-7.4,2.26l-4,1.19c-13.39,4.08-12.52,4-13.23,1.34-1.06-4-.54-5.41,3.76-10.19,3.41-3.8,4.24-6.53,3-9.72-.54-1.34-.77-1.5-1.28-.88m-291.59.56a1.69,1.69,0,0,0-.81.94,2.24,2.24,0,0,0,3.48,2.54c2.08-1.64-.24-4.66-2.67-3.48m234.1.72a16,16,0,0,0-10.84,8.53c-7.1,14.95,18.57,27.17,26.66,12.7,6.09-10.89-3.59-23.87-15.82-21.23M22.16-66c0,.3-.72.63-1.4.63-.37,0-.38-.09-.08-.45s1.48-.61,1.48-.18M23-64.66a1.23,1.23,0,0,1-1.36,1c-.78-.15-.8-.7-.05-1.06.94-.45,1.41-.44,1.41,0m240,1.67c7.31,3.6,9.31,13.9,3.76,19.34-6.92,6.77-21.38,1.41-22-8.14-.54-8.73,10-15.23,18.22-11.2m-2.91,2.85c-.55.44-1.5,1.27-2.11,1.84l-1.1,1-2.72-.65c-3.81-.92-4-.71-2.53,2.81l1.07,2.59-1.32,2.07c-2.15,3.36-1.93,3.76,1.93,3.45,2.87-.23,2.84-.25,4.78,2.27s2.6,2,3.7-3c.25-1.11.33-1.17,2.77-2.07,3.46-1.29,3.5-1.72.34-3.64l-2.37-1.44-.17-2.22c-.31-3.91-.66-4.37-2.27-3.07M218.46-57.2c-9.54,2.06-14.26,11.7-9.93,20.25,8.37,16.51,32.16,9,28-8.87-2-8.49-9.5-13.23-18-11.38m41.86,1.34a4.08,4.08,0,0,0,2.07,3.38c1,.56,1,1.33,0,1.33-.86,0-2.44,1.77-2.64,3-.25,1.44-.23,1.44-1.84,0-1.18-1.1-1.43-1.2-2.69-1.13-1.7.09-1.75,0-.94-1.69.65-1.33.62-2.19-.15-4-.19-.46,0-.49,1.69-.33s1.95.14,2.92-.74c1.29-1.17,1.34-1.17,1.57.28m94.2,1c.51.78.37,1.35-.33,1.35a39.82,39.82,0,0,0-3.91,1.06c-1.91.59-4.31,1.32-5.33,1.62l-3.85,1.17-3.33,1c-2.27.67-6.09,1.83-13.32,4-3.83,1.16-7.36,2.23-7.85,2.36-1.08.3-11.15,3.33-13.61,4.11l-3.9,1.22c-2.3.73-2.89.67-3.15-.31s5.71-3.26,16.82-6.51c1.79-.53,4-1.21,4.92-1.51s2.78-.87,4.14-1.27l5.59-1.67L332-49.57c4.14-1.19,5.6-1.6,8.59-2.44l5.33-1.5c8.19-2.35,8-2.31,8.6-1.36m-127.08.57c10.68,4.92,9.24,21.84-2,23.9-15.62,2.86-22.87-18.87-8.12-24.31a17.4,17.4,0,0,1,10.15.41m-62.4.23c4.4,7.12,7.19,9.32,5,3.93a7.64,7.64,0,0,0-4.56-4.11c-.55-.17-.64-.13-.45.18m52.08,1.66c-2.53,1.35-2.55,1.47-1,4.69,1.38,2.94,1.44,2.79-1.33,3.69-3.28,1.06-3.34,1.16-2.24,4.3.5,1.44.91,2.68.91,2.74,0,.31,2.49-.26,4.29-1,2.52-1,2.36-1.11,4,2.51s1.8,3.79,4.91,2c2.65-1.51,2.67-1.58,1.05-5A16.33,16.33,0,0,1,226.58-41c.06,0,1.33-.52,2.84-1,3.13-1.08,3.57-1.51,3-2.94-.21-.53-.63-1.64-.93-2.45-.78-2.13-.95-2.16-4.28-.93-3.77,1.39-3.41,1.53-5-2-1.65-3.66-1.92-3.77-5.11-2.07m-64,.21c-3.37.61-10.2,4.33-10.2,5.56,0,.13-.74.23-1.65.23-1.77,0-3.1.52-3.78,1.5l-.43.61-1.29-.63c-10.63-5.2-20.73-7.18-26.31-5.18-5.85,2.1-12.63,8.74-14.81,14.5-.37,1-.92,2.41-1.22,3.17a13.58,13.58,0,0,0,2.87,14c2.43,2.45,4.18,3.15,11,4.4,9.93,1.84,13.29,3.6,20.82,10.94,8.35,8.14,11.8,9.78,20.58,9.76,9.57,0,14.49-4.34,18.54-16.26,3.18-9.35-3.22-19.89-17-28-1.59-.93-1.7-1.07-1.7-2.11a7.78,7.78,0,0,0-.49-2.35l-.5-1.24,1.16-1a13.76,13.76,0,0,1,6.92-2.66c3.61-.33,4.61.61,5.92,5.59,1.2,4.54,2,5.68,4.9,7.14,3.15,1.56,10.84,1.5,11.7-.1.58-1.1-.32-1.64-2-1.18-6.9,1.93-11.66-1.14-13.14-8.49-1.21-6-9-7-15.5-2.05-2.24,1.71-3.56,1.13-1.5-.66,2.48-2.16,7.12-3.72,11.08-3.72,4.94,0,6.63,1.53,7.68,6.91,1.15,5.92,4.41,7.48,12.38,5.9,1.36-.27,1.55-.4,1.55-1,0-1-1.07-1.22-2.89-.71-5.11,1.43-8.31-.37-9.23-5.2-1.31-6.85-5.4-9.18-13.5-7.71M171-52.43a1.41,1.41,0,0,0,.42,1.88c.85.46,1.46.15,1.46-.73S171.56-53,171-52.43m186.1,3.35c.79,1.87,1.79,4.27,2.21,5.33s1,2.46,1.27,3.11c2.15,5,2.16,5.21.27,5.68-1.26.3-9.9,2.89-18.17,5.43-3.7,1.14-5.7,1.74-7.85,2.35-1.22.35-2.75.82-3.4,1S327.89-25,325-24.21s-5.71,1.7-6.36,1.92-2.32.74-3.7,1.15-4.65,1.4-7.26,2.2c-3.72,1.15-4.78,1.38-5,1.07s-1.35-3.63-2.71-7.58-2.62-7.57-2.8-8c-.67-1.69-1.31-1.36,8.1-4.19,7.83-2.36,10.56-3.19,12.14-3.68l4-1.21,4-1.21c2-.64,8.66-2.64,12.14-3.68L344-49.37l6.52-2c1.38-.42,2.78-.87,3.1-1,1.58-.68,1.94-.33,3.47,3.27M387.6-52a2.26,2.26,0,0,0-.12,3.77,2.07,2.07,0,0,0,2.51-.3c2-1.6,0-4.61-2.39-3.47M220.4-49.75c.42.94,1.06,2.34,1.4,3.11.84,1.84.94,1.86,4.25.66,3.51-1.27,3.4-1.27,4,.17s.86,1.16-3.17,2.61c-2.91,1.05-2.95,1.19-1.36,4.78l1.19,2.69-.95.58c-1.4.86-1.59.7-3-2.52-1.65-3.67-1.45-3.57-4.84-2.36-3.15,1.13-3.49,1.06-3.64-.72l-.09-1,2.59-.92c3.17-1.13,3.16-1.11,1.71-4.39s-1.31-3.91.95-4.34a4.9,4.9,0,0,1,1,1.66M388-49.48c-.21.56-.76.24-.76-.45,0-.85.72-1.39.84-.63a2.51,2.51,0,0,1-.08,1.08m2-1c.23.37.16.64-.25,1.1-.72.8-1.18.37-.91-.86.22-1,.64-1.06,1.16-.24M.54-48.27v2.33l1.2.32c1.47.39,1.81.12,2.35-1.8.49-1.77.32-2.09-1.38-2.57l-1.8-.5c-.27-.08-.37.49-.37,2.22m399.32-.37c-.47,1.55-.48,1.78-.08,2.18.67.67.8.32.7-1.9l-.09-2-.53,1.73m-51.62-.46c-2.79,1.7-1.09,6.23,2.2,5.86a2.79,2.79,0,0,0,2.74-2.32c.82-3.06-2.19-5.22-4.94-3.54M352-48a2.35,2.35,0,0,1-2,3.89,3.06,3.06,0,0,1-2.4-2.66c0-1.84,3.24-2.74,4.42-1.23m-232.34-.19c3.52.51,9.54,2.56,15.19,5.18l3.56,1.64c19,8.7,27.68,17.06,27.68,26.63,0,7.34-8.27,14.51-17.32,15-6,.34-10.36-1.9-18.51-9.56-7.63-7.18-8.88-7.81-21.61-10.93C95.35-23.44,92-30.53,99.3-39.68c1.33-1.65,2.2-2.25,1.75-1.18-3.47,8.19,3.23,15.44,11.83,12.79,13.26-4.1,13.91-17.89.94-19.68-1-.14-1.34-.27-1-.46.55-.35,4.35-.34,6.84,0m219.76,1.74c-3,1.38-2.16,5.45,1.26,6.13s5.15-4.9,2-6.11a3.38,3.38,0,0,0-3.24,0m-222.75.6c6.08,2.3,7,8.13,2.11,13-7.54,7.54-19.9,3.24-17.11-5.95,1.83-6,8.94-9.39,15-7.09m226.08.46c1.26.89,1,3.22-.48,4-2.34,1.25-5.11-2-3.27-3.84a3.66,3.66,0,0,1,3.75-.16M111-43.42l-1,1.22-1.27-.35C108-42.74,107.22-43,107-43c-.43-.17-2.24,1.57-3.35,3.21-.88,1.3-.67,1.77,1,2.32s1.66.65.62,2.33c-1.19,1.94-1.11,2,2.84,3.4,3.32,1.16,3.31,1.16,4.52-1,.61-1.1.6-1.09,3.32-.74l1.63.21,1.26-2.06c1.59-2.6,1.59-2.59-.43-3.49s-2.08-.83-1.15-1.94c1.19-1.41.94-1.77-2-2.85-3.31-1.19-3.07-1.2-4.3.25m32.55-.34c1.66.84,3.45,3.2,2.88,3.77-.14.14-3.5-1.46-6.83-3.24-1.8-1,2.08-1.49,4-.53M12.42-43a2,2,0,0,0,.1,3,2,2,0,0,0,3.41-.73c.91-2.19-2.06-4.06-3.51-2.22m2.44.48c.17.28.24.59.13.69-.27.27-1.42-.53-1.42-1s.9-.32,1.29.3m99.41.16c1.64.59,1.68.67.81,1.85s-.6,1.58,1.36,2.48,1.89.91.92,2.08c-.73.91-1.09.93-3.9.32-.88-.19-1-.12-1.78,1.34-.94,1.7-1.35,1.78-3.74.76-1.31-.55-1.35-.85-.35-2.33s.86-2-.83-2.57-1.7-.79-.62-2.07c.64-.77.92-.9,1.55-.73,2.82.75,2.7.77,3.82-.48s.95-1.29,2.76-.65m12.58-.31c-.87.24,4.4,2.37,7.22,2.92l1,.2-.69-.74c-1.37-1.48-5.78-2.86-7.57-2.38m202.34.85c-.57.22-2.4.83-4.07,1.34-4.23,1.31-4.14,1.21-3.48,3.66s.52,2.48,4.9,1.06c6.61-2.16,6.28-2,6.06-3.2-.6-3.17-1.24-3.71-3.41-2.86M14.7-40.51c.14.43-1.23.39-1.66,0a1.48,1.48,0,0,1-.36-.92c0-.61,1.78.23,2,1m316.79.56c.54,1.61.67,1.51-3.93,3-4.86,1.55-4.8,1.55-5.05-.09s-.14-1.81,1.57-2.22c.77-.19,2.47-.73,3.78-1.2,2.93-1.07,3.1-1,3.63.54m20.35-1.15a3.28,3.28,0,0,0-.73,5.4,3.22,3.22,0,0,0,5.2-1.42c1.08-2.58-1.75-5.09-4.47-4M355-39.9c1.74,1.75-.14,4.88-2.45,4.07a2.38,2.38,0,0,1,.72-4.66,2.39,2.39,0,0,1,1.73.59M127.5-38.57c-.92.91-1.79,2.65-1.66,3.3.1.49,9.81,5.72,10.63,5.73.52,0,3.52-3.72,3.52-4.36,0-.39-.72-.76-7.25-3.73-4-1.83-4.3-1.88-5.24-.94m10.59.42c-.24.38.13,1.21.53,1.21.65,0,1.16-.54,1-1s-1.24-.65-1.51-.2M341-37.56A3.2,3.2,0,0,0,343.25-32a3.06,3.06,0,0,0,3.11-2.68c.69-3.05-3-5-5.4-2.83m-207.49,2a38.54,38.54,0,0,1,4.44,2.14,6,6,0,0,1-.86,1.17l-.84,1-4-2c-2.18-1.12-4.12-2.14-4.32-2.26-.41-.26.3-2,.81-2,.16,0,2.28.88,4.73,2m174.84-1.13c-2.23.89-2.32,1-1.81,3.19.21.88.16.94-1.28,1.56-1.75.75-1.78.88-.66,3.73.88,2.24,1.21,2.42,3.34,1.81.7-.2.81-.11,1.28,1.13.6,1.59.54,1.58,3.52.59,2.65-.89,2.75-1,2.14-2.76-.55-1.56-.51-1.63,1.19-2.1s1.84-.79,1-3.42-1-2.64-2.68-2c-1.42.5-1.42.5-2.06-1.15s-1.19-1.64-4-.54M344.87-37c1.59,1.28.36,4.2-1.76,4.2-1.65,0-3-2.64-2-3.9a3,3,0,0,1,3.76-.3m-33.54,2.5c.5,1.74.61,1.8,2.3,1.22,1.53-.52,1.7-.44,2.2,1.05.4,1.2.46,1.12-1.34,1.76-1.55.56-1.64.8-1.14,3.16.18.81.1.93-.81,1.26-1.6.58-1.89.46-2.43-1s-.77-1.54-2.34-.89c-1.4.58-1.34.6-1.84-.58-.71-1.71-.58-2.1.94-2.67l1.36-.53L308-33.4l-.19-1.71,1.27-.44c1.66-.59,1.74-.56,2.21,1m19.93-.23c-.57.22-2.5.87-4.29,1.44-2.8.89-3.27,1.13-3.36,1.71-.11.74.81,4.11,1.13,4.11s10.18-3.26,10.33-3.41a9.48,9.48,0,0,0-.55-2.2c-.74-2.32-1.09-2.49-3.26-1.65m-35.89,1.12c.3,1.17,2.18,6.65,5.55,16.21,1.61,4.57,1.82,5.75,1.32,7.26-.44,1.33-.63,1.15-1.62-1.49-1.32-3.53-2.75-7.32-3.41-9-.85-2.18-1.64-4.3-2.22-5.92-.26-.73-.67-1.77-.92-2.31a5.46,5.46,0,0,1-.27-4.47q.92-2.76,1.57-.25m68.16.54c0,.56-.55.78-6.95,2.81-2.45.77-6.58,2.1-9.18,3l-9.63,3.1-8.29,2.69c-1.87.62-6.2,2-9.62,3.11s-8.2,2.63-10.63,3.42c-5.24,1.71-5,1.69-5.45.46-.63-1.76-.53-1.91,1.8-2.58,1.18-.35,2.68-.8,3.33-1s2.38-.76,3.85-1.19,4.33-1.31,6.36-1.94c4.07-1.25,7.9-2.41,13.77-4.14,2.12-.62,4.25-1.27,4.74-1.43s2-.63,3.4-1l6.37-1.92c2.11-.65,4.84-1.46,6.07-1.82,2.17-.64,5.78-1.75,8.14-2.51q1.92-.62,1.92,1m-29.81.17c.62,1.68,1.09,1.31-3.78,2.91s-4.74,1.64-5.2,0-.53-1.61,3.26-2.77c1.71-.52,3.38-1.06,3.7-1.21,1.16-.5,1.5-.32,2,1.08m-210.47.52c-1.2,1.8-1.24,2.68-.13,3.3L127-26.93c5.78,3.22,7,3.33,8.44.8,1.26-2.14,1.29-2.1-4.58-5.12-6.28-3.23-6.2-3.22-7.59-1.13M88.77-30.84c-2.29,4.5-.45,12,3.34,13.58,1.37.57,1.38.39.08-1C90.62-20,89.92-22.78,89.7-28l-.19-4.31-.74,1.46m41.16.88c4.82,2.43,4.73,2.34,3.81,3.51s-.83,1-5.71-1.74c-4.32-2.43-4.25-2.37-3.56-3.35s.45-1,5.46,1.58m233.41-.24c.42.68-.57,1.58-1.1,1s-.5-.59,0-.89c.66-.38.91-.41,1.09-.11m-1.73,1.48c.74.84.94,1.69.47,2-.32.19-2.1-1.86-2.1-2.42s.89-.41,1.63.44M360.2-27.3a8.8,8.8,0,0,1,1.26,1.9c0,.73-1.2.19-2.13-1-1.33-1.63-1.49-1.93-1.27-2.29.35-.58.9-.23,2.14,1.35m-2.15.64c1.57,2,1.55,2.05-1.62,3-1.22.37-3.82,1.17-5.78,1.79l-8,2.52c-2.44.76-5,1.57-5.63,1.79s-3.38,1.09-6.07,1.93-5.41,1.71-6.07,1.93-3.18,1-5.62,1.77-4.94,1.56-5.56,1.79c-1.81.69-2.44.55-3.75-.83-1.86-2-2.76-1.52,13.75-6.75,2.12-.67,5.18-1.66,6.81-2.2s6.56-2.14,11-3.55,9.45-3.07,11.25-3.69c4.16-1.44,3.77-1.48,5.32.49m-237.64-.58c-2.48,2.72-2.36,3.19,1.3,5.33,7.56,4.4,10,4.52,10.76.49.24-1.27.94-.74-5.33-3.94-6-3.06-5.73-3-6.73-1.88m30.39.5c-5.69,2.08-3,10.17,3.55,10.47,4.08.18,6.22-2.32,5.21-6.08-.88-3.25-5.51-5.58-8.76-4.39M126.32-24a26.7,26.7,0,0,1,4.32,2.52c0,.14,0,.42-.08.62-.19,1.67-3,.75-9.08-3-1-.62-1-.64-.57-1.5.59-1.14.43-1.19,5.41,1.4m28.47-1.05c4.3,1.95,4.76,6.64.71,7.25-3.9.58-7.13-2.88-5.84-6.25.52-1.36,3.2-1.88,5.13-1m-58,2.55c1,1.79,1.07,2.16.62,2.16s-2.08-3-2.08-3.64.47-.35,1.46,1.48M84.93-23.64c-.79,1.5.09,3.87,1.44,3.87.49,0,.51-.16.28-1.66-.41-2.6-1.06-3.43-1.72-2.21m15.86,5.87c-.32.32-1.09-.47-1.6-1.64-.89-2.05-.41-2.17.71-.18a8.61,8.61,0,0,1,.89,1.82m2.57-.59c1,1.37.94,1.72-.21,1.44a4.5,4.5,0,0,1-1.94-2.71c0-.61,1.39.21,2.15,1.27m3.47.81,1,1h-1.06a1.53,1.53,0,0,1-1.54-.73c-1.08-1.65.07-1.88,1.59-.31m2.85.6c.27.42.41.84.3.94s-1.67-1-1.67-1.44.91-.2,1.37.5m3.87.3C120.73-15,122.2-14.14,129.48-7,140.23,3.44,151,5.32,160.35-1.65c1.33-1,1.22-.3-.23,1.43-6.42,7.67-18.93,6.6-28.67-2.46l-4-3.76a40.39,40.39,0,0,0-13.2-8.32c-2.19-.8-3.19-1.46-3.22-2.12,0-.31.27-.29,2.56.23m28.59.63c-2.8.85-3.78,2.43-2.25,3.63,1.79,1.41,7.51-.36,7.51-2.32,0-1.63-2.32-2.21-5.26-1.31m3.18,1.28c0,.38-1.76,1.11-3,1.24-1.43.15-1.37-.48.09-.92L144-14.9c.66-.19,1.33-.11,1.33.16M36.52-12.19,31-10.29C22.68-7.43,18-5.76,17-5.25a6,6,0,0,1-1.71.58c-.63,0-1.09,1.14-1.09,2.67,0,1.23-1.88,2.54-3.44,2.39a3,3,0,0,0-1.61.77c-.55.46-.89.67-.76.46.32-.53-.55-.47-1,.08A2.08,2.08,0,0,1,6,2.14c-.55,0-1,.15-1,.33s-.21.24-.49.14a7.62,7.62,0,0,0-3.79,1c-.41.65.19,1.81.84,1.64,2-.53,2.85-.87,2.85-1.11s.22-.2.48-.1a6,6,0,0,0,2.3-.4L11.31,2.3a9.38,9.38,0,0,1,2.56-.6c.62.38-.07,7.07-.81,8s-.76,2.15.25,3.53c.82,1.12.8,1.13-4.5,3C.43,19.12.54,19.07.54,19.8s0,.65,3.33-.53c12.17-4.37,11-4.11,12.94-2.78,2.61,1.75,3.13,1.7,8.75-.86.82-.37,2.07-.93,2.8-1.23C43.91,7.8,47,6.15,45.87,5a1.05,1.05,0,0,1-.32-.54c0-.25,13.51-4.7,14.26-4.7.52,0,12.24,12,12.24,12.51a19.22,19.22,0,0,1-4.3,1.91l-15,5.56-8.29,3.07c-3.58,1.31-7.25,2.67-8.14,3s-4.5,1.67-8,3-7.89,2.95-9.77,3.71c-7.14,2.94-7.66,3.07-8.51,2.13-.32-.36-2-2.58-3.78-4.94s-3.74-5-4.41-5.9L.69,22.17.6,23.81.52,25.45l4.41,5.89L13.41,42.7l4.08,5.48-.16,1.93c-.29,3.4-1.21,8.58-1.53,8.57-.17,0-.68-.57-1.13-1.26s-1.45-2.13-2.22-3.21c-4.82-6.78-7-9.85-9.24-12.92L.69,37.82.6,39.48.52,41.14l6.13,8.55c7.2,10.05,8.23,11.49,9.09,12.78s1.37,1.41,4.41.21c1.51-.6,4.28-1.69,6.15-2.41,21-8.16,50.42-20,55.84-22.46,3.13-1.42,4-3.47,4-9.7,0-5.5-.4-6.18-7.11-12.24C77.78,14.77,64.89,1.62,55.73-7.88c-4.81-5-4.13-4.7-8.16-3.41-4.94,1.58-4.61,1.6-6.26-.31a9,9,0,0,0-1.63-1.64c-.11,0-1.54.48-3.16,1.05M308.83-11c1.29,1.4,1.56,2,.87,2a8.7,8.7,0,0,1-3-3c0-.77.9-.35,2.14,1m-159.26-.07c-1.56.73-2.07,1.47-1.74,2.51.73,2.29,8.15.71,8.15-1.74,0-1.68-3.54-2.1-6.41-.77m156.69.1a9.56,9.56,0,0,0,1.21,1.47c.79.73.9,1.27.28,1.27s-2.84-2.63-2.84-3.18.81-.4,1.35.44m-266.64.4a3.61,3.61,0,0,0,.63,1.2c.34.48.56.94.48,1S22.89-1.73,21.19-1.21c-.62.2-3.35-1.92-3-2.31a6.26,6.26,0,0,1,1.58-.67c.72-.23,3.85-1.31,7-2.4s6-2.1,6.36-2.23L36.37-10c2.81-1,3.25-1.07,3.25-.6M153.91-10c0,.44-2.67,1-4.14.93-.61,0,.53-.82,1.48-1,1.36-.25,2.66-.22,2.66.07M306-7.87c-.63.39-2.21-1.52-1.8-2.17.12-.21.57.1,1.17.82s.85,1.22.63,1.35M54.69-6c4.56,4.7,4.51,4.53,1.58,5.44C55-.15,51.81.88,49.16,1.75c-6.72,2.19-6.06,2.63-5.82-3.83a44.25,44.25,0,0,1,.41-5.63A45.45,45.45,0,0,1,50.32-10a27,27,0,0,1,4.37,4M304.32-7.48a.45.45,0,0,1-.45.44.44.44,0,0,1-.44-.44.44.44,0,0,1,.44-.44.45.45,0,0,1,.45.44M41.47-5.27c-.12,1-.3,1.09-1,.35-.56-.56-.59-.7-.21-.94.73-.47,1.34-.19,1.25.59M40.05-3.85c1.29,1.36,1.65,2.22,1.07,2.58-.22.14-1.91-1.16-3.72-2.86-.19-.19-.09-.43.28-.71.82-.6.88-.57,2.37,1m-1.4,2.08L41.09.51,40.91,3c-.16,2.14-.27,2.51-.81,2.73L35.92,7.34c-6.16,2.39-10.29,4-12.43,4.86a5.69,5.69,0,0,1-2.32.6c-.5-.45.13-11.88.66-12,.26-.08,1.14-.39,2-.69,13.51-4.95,11.8-4.74,14.87-1.85M19,2.4c-.06,10.16-.24,11.48-1.27,9.44a10.3,10.3,0,0,0-1-1.45c-.61-.77-.92-10.67-.36-11.58S19.05.64,19,2.4M398.62,4.18a16.74,16.74,0,0,1-2.89.91c-1.44.3-1.7.45-1.71,1s-.06.55-.27.22c-.65-1-5.33.79-5.7,2.23-.17.68-.54,1.05-1.43,1.45-4,1.8-6,7.15-4.94,13.36,1,6,3,9.33,11.6,19.21a54.78,54.78,0,0,1,6.63,9.17l.61,1.19V50.76a7.13,7.13,0,0,0-.28-2.52c-.17-.19-1.21-1.62-2.31-3.17s-3.53-4.58-5.38-6.75c-9.75-11.37-12-20.17-6.4-25.5,1.54-1.49,1.66-1.05,1,3.88-.67,5.18-.84,4.59,2.89,9.79,1.61,2.23,4.25,5.94,5.88,8.23s3.33,4.65,3.78,5.23l.81,1.06V39.32c0-1.61-.09-1.82-2-4.51-1.1-1.55-2.19-3.11-2.43-3.46-.62-.89-5.11-7.19-6.2-8.68l-.9-1.23.37-4.75c.33-4.22.55-5.46.91-5.05,0,.07,1,1.32,2.07,2.79l2.19,3c.13.16,1.49,2,3,4.08l2.8,3.78.09-1.66a4,4,0,0,0-.26-2.09c-.28-.33-.28-.52,0-.78.71-.71.41-1.47-.5-1.27-.76.17-1,0-2.29-1.75l-3.93-5.21c-2.77-3.68-2.8-3.84-.63-4.4a14.64,14.64,0,0,0,2.33-.8,3.58,3.58,0,0,1,1.23-.41c1.84,0,4.13-1.25,4.13-2.25,0-1.17-.26-1.23-1.92-.45M316.36,16l-12,12v2.43c0,3.19,0,3.21,7.1,6.83C323,43.25,329.68,46.55,330,46.55s2.44-2.24,6.76-6.95l4.13-4.45c1.82-1.95,5.08-5.48,7.26-7.84s4.28-4.63,4.68-5c1.43-1.46,2.13-5.38,1.16-6.56A41.9,41.9,0,0,0,348.43,13c-2.85-1.27-6-2.7-7.1-3.19-6.76-3.09-11.6-5.27-12.32-5.55C328.48,4,326.8,5.56,316.36,16M245.1,4.51a8.76,8.76,0,0,1-1.92.27,6.43,6.43,0,0,0-4.58,1.75,10.42,10.42,0,0,1-2.29,1.64c-14.85,7-31.21,25.2-38.95,43.3-6.05,14.13.91,18.86,16.21,11l15.1-7.65c23.7-12,29.81-16.51,33.89-25.23,5.94-12.71,2.71-21.66-8.95-24.8-2.38-.64-7-.81-8.51-.32m89.12,3.34,6.66,3,3.33,1.52,3.11,1.42c.86.39,2.32,1,3.26,1.46,2.26,1,2.84,0-4.35,7.71-3.86,4.16-3.05,3.28-7.41,8-1.95,2.12-4.36,4.71-5.36,5.77s-2.24,2.39-2.74,3l-.91,1-1-.55c-1.59-.9-11.51-6.1-17.34-9.08a42.83,42.83,0,0,1-5.33-3c.23-.63,22.56-22.77,22.84-22.65l5.22,2.34M252.55,6.71c3.11.66,4.22,1.37,5.11,3.25a15.25,15.25,0,0,1-2.19,16.4c-1.42,1.76-1.64,2.43-.78,2.43s2.79-2.75,4-5.37c1.66-3.64,2.26-9,1.36-12.06-.44-1.48,1-.07,2,2,1.21,2.45,1.43,5.21.72,9-2,10.57-9.91,18.29-28.09,27.33-4.93,2.46-5.36,2.38-1.45-.24,6.39-4.3,19.57-15.79,19.24-16.79-.28-.83-.85-.45-4.4,2.94a128.26,128.26,0,0,1-21.4,16.66l-2.22,1.31-3,1.8c-1.39.82-3.45,2.14-4.59,2.92-8.54,5.85-18.28,7.55-19.4,3.39-.74-2.74,3.63-15.28,6.39-18.36a1.62,1.62,0,0,0,.42-.68c0-.11,1-1.7,2.18-3.53,7.4-11.3,17.58-21.26,28.11-27.49,1.87-1.11,1.88-1.11,2.08.86.14,1.41.08,1.8-.39,2.29-2.26,2.42-.9,6.67,2.66,8.27,8.14,3.65,17.74-1.15,13.68-6.86a2.08,2.08,0,0,1-.38-2.18,6.41,6.41,0,0,0-2.45-6.63l-1.22-1h1a19.18,19.18,0,0,1,3,.41m-7.08.74c7.53,2.59,6,10.13-1.77,8.63-4.18-.81-6.3-4.1-4.51-7,1.33-2.14,3.31-2.66,6.28-1.63M240.88,10c-1.24,1.24-.77,3.5.77,3.68.78.09.81,0,.47-.57a8.73,8.73,0,0,1-.54-2.15c-.17-1.41-.2-1.46-.7-1M44.36,11.05c-1.06.47-2.29,1-2.74,1.18-1,.41-1,.58-.06,2.2,1.21,2.05,1.19,2.05,4.31.72,4.42-1.9,4.41-1.89,2.76-3.78-1.28-1.45-1.64-1.48-4.27-.32m290,.93c-2,.71-2,.75,1.38,2.47,2.91,1.48,3,1.44,2.08-1.42-.6-2-.73-2-3.46-1m-286.77.08c.47.57,0,1.19-1.12,1.47a12.14,12.14,0,0,0-1.8.68c-1.06.5-1.89.27-2.05-.56s4.29-2.41,5-1.59M337,13.12c.26,1.2.12,1.28-1.15.67s-1.4-1.16-.56-1.38c1.22-.32,1.51-.19,1.71.71M74.83,14.7c.7.71,1.23,1.46,1.16,1.66S69.85,19,64.35,21c-.65.23-2,.73-3.11,1.13C57.5,23.46,50.11,26.2,47.91,27L32.07,32.89c-2.6,1-6.33,2.39-8.29,3.14C17.2,38.58,14,39.69,13.68,39.5a15.79,15.79,0,0,1-2.18-3c0-.11.5-.29,1.11-.38a34.37,34.37,0,0,0,4.66-1.7c1.95-.83,5.75-2.32,8.44-3.3l6.66-2.44L48.8,22.57,55.61,20c7.35-2.71,8-2.95,11.11-4.12l4.73-1.79c1-.37,1.85-.68,1.94-.7a7,7,0,0,1,1.44,1.27m251.62-1.1c-.35.09-.52.42-.52,1s-.18.94-.71,1.14c-1.39.53-1.24,2.11.26,2.67.82.31,2.23-.44,2.23-1.19a2,2,0,0,1,.59-1.17c1.44-1.44.26-3-1.85-2.46m1.55.68c.34.21.37.4.13.79-.48.77-.94.8-1.32.08-.49-.91.27-1.46,1.19-.87M34.74,15.36l-3.33,1.47c-1.2.55-1.21,1.05,0,2.53s1.3,1.35,5-.12c4.39-1.75,4.36-1.71,2.77-3.65-1.27-1.56-1.37-1.56-4.4-.23m233.16.39a6.61,6.61,0,0,0,0,3.89c.4.73.82.48,1.36-.82.75-1.78-.52-4.64-1.37-3.07m-229.76.6c.34.62-.88,1.34-4,2.36-2.82.93-2.56-.52.33-1.85,2.68-1.23,3.2-1.31,3.62-.51M243.31,18a9.26,9.26,0,0,0,6.15-.51c1.29-.66,1.86-.29,1.86,1.2,0,5.05-13.44,4.3-14.12-.79-.26-2,.44-2.35,2.34-1.23A13.42,13.42,0,0,0,243.31,18M327,16.66c.29.48-.48,1.21-1.17,1.11-1.08-.15-1-1.42.08-1.42a1.58,1.58,0,0,1,1.09.31M78.37,18.43c1.39,1.33,1.42,1.27-1.59,2.38l-3.4,1.25c-1.06.4-3.26,1.21-4.89,1.8s-3.23,1.21-3.55,1.37-4.52,1.82-9.33,3.71S46,32.75,44.81,33.23s-3,1.2-4.15,1.63-2.67,1-3.4,1.33-2.2.89-3.26,1.29-3.17,1.22-4.7,1.83-3.13,1.2-3.55,1.33-2.58.93-4.78,1.76l-4,1.51-.81-1c-.85-1-1.28-1.95-1-2.21s8.26-3.28,15.3-5.88l6.81-2.53C43.45,30,57.42,24.8,59.17,24.18c1-.38,5.52-2,9.91-3.65,9.4-3.48,8.15-3.19,9.29-2.1M315.2,21.36c-2.8,2.82-3.68,3.88-3.41,4.09.54.42,4.32,2.44,13.85,7.41,1.7.89,3.7,2,4.42,2.38l1.33.75,3.93-4.07a53.5,53.5,0,0,0,3.93-4.33A12.47,12.47,0,0,0,336.52,26c-6.14-3-13.81-6.68-15.6-7.55-1.05-.51-1.91-.93-1.93-.92s-1.72,1.72-3.79,3.81m15.53-2.85c-1.3,1.34-1.29,2.36,0,1.19.45-.41.6-.43.8-.12a.72.72,0,0,0,.87.19c.73-.23.83.19.18.73-.46.39-.61,1.18-.21,1.18.23,0,.6-.38,1.77-1.89.78-1,.88-1.81.19-1.54-1.47.56-1.9.54-1.9-.09,0-.9-.63-.77-1.71.35m-104.37.22c-1.5,1.18-1.27,3.85.43,5.06,2.31,1.64,5,.72,5-1.72,0-2.9-3.35-5-5.42-3.34m-202.87.84c-4.39,1.63-4.33,1.53-2.43,3.7l1.26,1.44,1.92-.61c5.56-1.76,5.87-2,4.85-3.78-1.33-2.3-1.38-2.31-5.6-.75m304.1,2.86c9.2,4.47,10.29,5,10.39,5.38a32.14,32.14,0,0,1-3.28,3.76l-3.34,3.52-3.53-1.85-7.16-3.77c-3-1.59-3.65-2-3.79-2.71-.1-.43-.43-1.64-.75-2.7l-.57-1.91,1.85-1.86c2.19-2.22.41-2.59,10.18,2.14m25.15-1.7c-.42.42-.64-.47-.35-1.42l.32-1,.1,1.14a2.8,2.8,0,0,1-.07,1.31m-123-.55c1,1,1.16,2.37.42,3s-2.17.15-3-.75c-1.92-2.07.58-4.23,2.58-2.23m121.83.75c-.11.74-.33,1.35-.48,1.35-.37,0-.35-.37.08-1.77s.66-1.3.4.42m-15.86-.39c-1.5,1.65-1.68,2.23-.88,2.92,1.74,1.51,3,1.08,3.35-1.16.39-2.43-1-3.4-2.47-1.76m-308,0c.51.81.38.9-2.52,1.91-2.44.85-4,.62-3.57-.56s5.55-2.22,6.09-1.35m363.78.26c.41,2.1,2.58,5.63,4.72,7.69s.52-1.63-2.58-5.76c-2.36-3.13-2.39-3.16-2.14-1.93m-54.2-.11a.72.72,0,0,1,.46.59c0,.42-.28.51-1.33.44-.55,0-.54,0,.11.56.81.7.67,1.52-.23,1.28-1.19-.31-1.32-.87-.46-2a7,7,0,0,1,.89-1.05,3.41,3.41,0,0,1,.56.18m12.89,1.53C349.89,23.64,349,25,349,24c0-1.18,1-3.75,1.38-3.41a5.92,5.92,0,0,1-.21,1.61M81.79,22l1.13,1.16-1.14.58a14.13,14.13,0,0,1-1.89.8c-.41.12-1.8.66-3.11,1.2-2.18.91-5.42,2.17-13.47,5.24l-4.59,1.73-4.14,1.56c-1.47.56-4.33,1.65-6.37,2.41-7.7,2.89-11.09,4.21-19.18,7.45-3.79,1.52-7.28,3-7.76,3.21-1.25.65-1.54.56-2.44-.75s-1-1.63,0-2l4.07-1.48c1.79-.66,4.32-1.61,5.62-2.12s3.44-1.32,4.74-1.8,2.63-1,3-1.15,3.86-1.56,7.85-3.12,7.52-3,7.84-3.11c1.28-.57,16.23-6.46,17.32-6.83.41-.13,3.07-1.11,5.92-2.17s5.26-1.93,5.35-1.94A6.73,6.73,0,0,1,81.79,22m266.94.84c0,1.7-1.07,3.28-4.79,7.27l-5.3,5.69c-8.14,8.8-8,8.71-8.21,7.17-.11-.93.27-1.45,3.75-5.11,1.24-1.31,3.06-3.25,4-4.32L343.28,28c1.81-1.94,3.66-4,4.1-4.5.76-.91,1.35-1.23,1.35-.74m-32.88,2c.71,2.28.69,2.19.31,2.19s-1.83-3.27-1.65-3.76c.32-.82.76-.3,1.34,1.57M268.79,24c0,3-3.48,10.18-6.36,13.15-1.32,1.36-1.36,1.44-.58,1.24,2.46-.61,5.26-3.43,6.64-6.68.79-1.86,1.28-8.29.63-8.29-.18,0-.33.26-.33.58m45.78,2c-.27.28-.39.07-.61-1.09l-.2-1,.5,1c.28.54.42,1.06.31,1.16M84.33,25.68a.43.43,0,0,1-.42.44c-.5,0-.83-.42-.56-.69s1-.2,1,.25m-1.16,1.26c.75.53,1.15,1,1.16,1.48,0,.88-.1.85-1.79-.45-2.26-1.74-1.69-2.67.63-1m227.37,0c0,.13.43.46,1,.73s1.89,1,3,1.64,3.34,1.82,4.89,2.64,4.53,2.44,6.63,3.59a20.09,20.09,0,0,0,4.1,1.92c.41-.26.07-.49-3.77-2.56l-5.33-2.87c-10.15-5.5-10.51-5.68-10.51-5.09M81.82,28.66c2,1.55,2.39,2.1,1.82,2.28-.39.11-4.62-3.14-4.63-3.56,0-.71.76-.36,2.81,1.28m-3,.05c.73.62,2.07,1.65,3,2.3,1.82,1.32,2.09,2.15,1.17,3.71-.5.85-1,1.13-4.69,2.53-1.14.44-2.6,1-3.25,1.31s-2.12.88-3.26,1.33-2.61,1-3.26,1.33-2.11.88-3.25,1.32-2.5,1-3,1.22a5.86,5.86,0,0,1-1.14.42,5.48,5.48,0,0,0-1.14.43c-.51.23-5.53,2.24-11.15,4.46S38.19,53.29,37.7,53.5c-1,.43-8.27,3.31-10.78,4.27-2,.74-2.12.66-5.49-3.05-3.65-4-3.77-3.87,7.32-8.35,3.46-1.4,7-2.78,7.77-3.08l3-1.11c1.72-.67,9.09-3.47,20.87-7.91,4.84-1.83,8.29-3.17,12.73-4.93l4.35-1.72a16.49,16.49,0,0,1,1.38,1.09m157.51-.53c-2.36,1.44-1.31,4.9,1.8,5.93,3.86,1.28,4.66-4.47.85-6.1a2.16,2.16,0,0,0-2.65.17m-12.68,1.56c-2.1,1.68-2.52,2.43-2.52,4.49V36l1.85-.2c3.55-.38,3.7-.44,5-2a6.86,6.86,0,0,0,1.18-1.85,17.11,17.11,0,0,0-3.7-3.18c-.16-.09-1,.36-1.77,1m15.68,0c1.68,1.47,1.35,3.22-.62,3.22s-3.09-2.34-1.89-3.55c.81-.81,1.29-.75,2.51.33M156.73,30.9c-6.34,2.11-5.68,1.56-4.91,4.16.36,1.19,1,3.3,1.39,4.68s1,3.32,1.29,4.3l1.36,4.44c.44,1.46.84,2.71.88,2.76a108.77,108.77,0,0,0,10.73-3.64,25.31,25.31,0,0,0-1.39-5.48c-.1,0-1.27.38-2.61.84-2.64.91-2.88.88-3.11-.33-.18-1,0-1.18,2.06-1.83a5.44,5.44,0,0,0,1.56-.66,36.18,36.18,0,0,0-1-3.6,9.29,9.29,0,0,0-3,.93c-.46.35-.87,0-.95-.84-.12-1.09,0-1.23,1.26-1.59,4.07-1.17,4-1.08,3.15-4.4-.49-1.91-.07-1.93-6.62.26m150.62,1c1.19,2,1.44,2.87.66,2.22a12.15,12.15,0,0,1-2.39-3.71c-.32-1.29.54-.55,1.73,1.49m-81-.87c1.79,1.37.56,3.16-2.22,3.21-2.13.05-2.28-.94-.44-2.83,1.31-1.34,1.38-1.35,2.66-.38m-12.3,1.54c-2.17,2.41-2.16,2.33-.41,3.79,1.37,1.14,1.44,1.17,3.46,1.08,2.53-.1,2.72-.25,3-2.31.24-1.89.05-2.22-2.2-3.66-1.83-1.18-1.75-1.2-3.82,1.1m95.3.32a8.69,8.69,0,0,1,.74,1.83c-.51,0-2.52-3.06-2.52-3.85s1,.32,1.78,2m89.42-1.18a1.94,1.94,0,0,0,1.43,1.53c.57,0,.39-1.43-.23-1.77-.84-.45-1.2-.37-1.2.24m-82.51,3.15c7.54,3.81,12.65,6.64,12.78,7.08,1,3.2.66,3.28-3.66,1.1-14.83-7.52-13.8-6.87-15.17-9.58-1.14-2.24-1.19-2.25,6.05,1.4m-98.63-2c2.05,1.42,1.56,3.36-.86,3.36s-3.16-1-1.68-2.84c1.26-1.54,1.11-1.51,2.54-.52m-71.82,1.44c-3.73,1.26-3.44.78-3.65,6.18a28.22,28.22,0,0,1-.41,4.78c-.2.13-.77-.59-4.37-5.55L136.15,38l-2,.74c-4.39,1.61-4.44,1.64-4,2.85.16.37.63,1.88,1.06,3.35s1,3.19,1.18,3.84.81,2.55,1.32,4.22a16.41,16.41,0,0,0,1.22,3.2,1.53,1.53,0,0,1,.28,1c0,.86.71,1.26,1,.53.06-.19.44-.38.84-.43,3.19-.34,4.36-1.43,3.09-2.9-.8-.93-.93-1.22-.41-.9.21.13.27,0,.16-.35s-.3-1.09-.45-1.74-.42-1.62-.58-2.15c-.4-1.25,0-1.22.87.07.39.57.88,1,1.08,1s.37.22.37.49c0,.8,1.58,3.09,2,2.92a4.07,4.07,0,0,1,1.11-.15H145V49.53c0-4.76.25-5.27,1.19-2.37a9.23,9.23,0,0,0,.89,2.21,7.22,7.22,0,0,1,.58,2.05c.58,3.08.68,3.14,3.61,2.12,3.18-1.1,3-.79,2.14-4.19l-2.08-8c-.72-2.77-1.47-5.73-1.66-6.59-.41-1.81-.17-1.78-3.89-.51M221,37.94c-1.21,2-.72,4,1.31,5.47s2.24,1.3,5.46-2.43l.57-.66L227,39l-1.3-1.33h-2.29a6.52,6.52,0,0,0-2.45.27m4.75,1.61c.91.78.7,1.31-1.11,2.8l-.83.69-1.05-.84c-1-.8-1.47-2.52-.84-3.15s3-.18,3.83.5m-13.16,1.21c-1.85,2-1.86,1.7,0,3.46s2.38,2,3.75,1C218.48,43.77,219,43,219.21,41l.21-1.85H214.1l-1.52,1.61m5.35.61c-.08.9-2.12,3.11-2.86,3.11a3.83,3.83,0,0,1-1.35-1l-1-1,.72-.78c1.47-1.58,4.63-1.77,4.49-.27m-96.88,1.51c-1.06.41-2.33.89-2.82,1.06-1.66.6-1.62.37-1.33,8.39.15,4.07.28,8.22.29,9.22v1.82l1.11-.25,3.29-.75,2.18-.5-.14-1.44c-.16-1.63,0-1.83,1.7-2.3,1.27-.35,1.39-.28,2.52,1.42l.45.67,1.62-.64a10.24,10.24,0,0,0,2.07-1,3.43,3.43,0,0,1,1.26-.57c1.12-.27,1.27,0-3.2-6.55-2.21-3.26-4.51-6.68-5.11-7.61-1.25-1.93-1.31-1.95-3.9-.95m85.44,1.47c-.63.63-.63,1.74,0,1.5a2.69,2.69,0,0,1,.69-.18,3.43,3.43,0,0,0,.91-1.65c0-.33-1.19-.08-1.6.33m-102.1,3.14c-10,3.5-8.31,20.13,2.1,20.22a10.27,10.27,0,0,0,7.66-3.28c2.23-2.17,2.22-2,.51-6.81s-1.13-4.44-5.33-2.89l-3.58,1.32.47,1.79c.45,1.72.5,1.78,1.28,1.62,2.79-.59,2.59-.61,2.59.22,0,1.63-3.11,2.26-4.67,1-3.39-2.85-.58-8.75,4.16-8.75,1.3,0,1.31-.11.3-3.48l-.46-1.55-1.66,0a13,13,0,0,0-3.37.62m98.52,2.45c-1.5,1.83-2.95,7-2,7,.29,0,1.44-2.55,2.72-6,1-2.61.78-2.86-.76-1M.55,51.11c0,2.18,1.11,4.79,5,11.58C12.72,75.33,23.42,81.6,39,82.29a17.66,17.66,0,0,1,4.14.42,37.85,37.85,0,0,1-2.63,2.84,34.49,34.49,0,0,0-2.81,3.1c-.25.46,0,12.6.35,14.07.16.8,1,1.06,5.75,1.72,1.87.26,5.14.74,7.25,1.06l7.85,1.16c2.2.32,5.2.78,6.66,1,4.85.81,4.12,1.17,9.83-4.81L81.94,96c2.35-2.44,2.39-2.63,2.39-9.58,0-7.15.34-6.57-4.18-7.14l-7.36-.91a32.41,32.41,0,0,1-4.2-.69c-.18-.17,1-4.94,3.15-13.05.85-3.19.94-4.68.31-5.51a3.46,3.46,0,0,1-.44-1.64c0-4.32-10.45-7.4-12.43-3.69a2.87,2.87,0,0,1-1.34,1c-1.75.63-2.12,3.34-.76,5.58.51.84.57,1.62.62,8l.06,7-.85-.07L54,75.09c-2.69-.24-3.46.14-6.27,3.06l-2.14,2.24-4.67-.17C21.51,79.49,10.06,71.47,3,53.66a25.58,25.58,0,0,0-1.52-3.11L.55,49.07v2m123.17.94c1,1.73,1,2.32,0,2.57s-1.14-.1-1.35-2.39c-.23-2.5,0-2.52,1.3-.18M21.65,56.36c2.14,2.25,2.49,2.92,1.56,2.92-.6,0-4.31-4.08-4.31-4.74,0-.95.37-.71,2.75,1.82m376.66-.59c.39,1,1.05,2.82,1.46,4l.74,2.07,0-2.17a6.13,6.13,0,0,0-2.31-5.19c-.59-.53-.59-.49.09,1.33M66.89,55c3,1.18,2.55,1.65-.77.73-1.14-.32-2.57-.66-3.18-.76s-1.11-.32-1.11-.5c0-.46,3.43-.1,5.06.53M20.31,58.08c1.35,1.58,1.46,1.8.87,1.8s-2.58-2-2.58-2.63c0-.94.32-.78,1.71.83m45.06,0c3.57,1.11,4.76,1.89,4.74,3.09,0,1-2.1,9.81-3.37,14.3-.23.82-.51,1.91-.61,2.44A2.24,2.24,0,0,1,65.62,79c-.34.21-.12-2,.36-3.59,1.86-6.19.83-10.53-3.07-12.93-2.9-1.79-4-2.93-4-4.05,0-2,1.25-2.06,6.5-.41M.54,60.25A8.62,8.62,0,0,0,1,63.33c.24.46,1,2.13,1.76,3.71,2,4.3,5.39,8.7,4,5.25-.34-.88-1.07-2.81-1.61-4.27C3.72,64.18,1.26,58.76.66,58.13a8.88,8.88,0,0,0-.12,2.12m296.75-.87c-.3.67-.21.72,3.73,2.07,10.09,3.47,12.33,4.3,12.29,4.54s-.13.55-.24.92-.08.67.18.67c.86,0,1.21.48.86,1.14a10.64,10.64,0,0,0-.65,2.3,5.61,5.61,0,0,1-.73,2.1c-.54.54-.54,1.45,0,1.66s.76,0,.78-.81a2.39,2.39,0,0,1,.44-1.2,2.18,2.18,0,0,0,.43-1.11,2.52,2.52,0,0,1,.3-1c.16-.29.69-1.62,1.17-3l.87-2.46-.65-.24c-.36-.14-1.65-.59-2.87-1l-7.85-2.74c-8.28-2.9-7.63-2.76-8.06-1.82m-278,.47c.49.55.49.59-.08.89-.95.51-1.23.38-1.23-.57s.55-1.16,1.31-.32m276,.62c-.22.69,0,1.18.57,1.18s.83-1.25.38-1.54-.75-.28-.95.36m-2.21,1.28c-.3.79-.14,1.09.56,1.09a1.09,1.09,0,0,0,.91-1.18c0-.6-1.23-.53-1.47.09m-2.21,1.55c-.17.66-.31.74-1,.58s-.85-.13-1.59,2.13c-.42,1.27-1.64,4.84-2.73,7.93-2.53,7.22-4.3,12.49-4.3,12.79a45.92,45.92,0,0,0,6.9,2.46c.12,0,.36-.35.52-.77.24-.64.42-.74,1-.59,1.13.29,1.56-1,.53-1.55-.41-.22-.67-.57-.58-.78s.32-1,.52-1.64c.46-1.54.82-1.69,2.49-1,1.47.56,1.46.54,1,1.4-.25.47-.24.67.07.87.68.43,1.1.29,1.2-.41.07-.54.25-.65,1-.58.49,0,1.31.12,1.83.14s.88.15.81.26c-.27.44,3.08,1,3.57.56.25-.21.45-.27.45-.15s-.23.4-.52.62-.37.4-.2.4a2,2,0,0,0,.95-.58,2.21,2.21,0,0,1,1.24-.59c.34,0,.6-.2.6-.45s.14-.44.3-.44c.5,0,.33-.54-.22-.72s-.52-.51-.54-1.79c0-.9.08-1.49.18-1.31s.27.13.39-.18c.27-.7.24-.8-.18-.56-.2.12-.07-.12.3-.52.65-.72,3.42-7.82,3.25-8.34-.08-.24-1.58-.78-10.29-3.75-6.14-2.08-6-2-5.61-3.13.28-.75.12-1-.62-1-.3,0-.59.31-.7.76M62,64.46c2.93,2.08,3.34,4.17,2.08,10.57-.39,2-.76,4-.81,4.54-.1.9-2.27,1.52-2.93.83-.17-.19-.46-15.72-.31-16.75.06-.41.52-.22,2,.81m98.47.37c-2.1.4-7.73,3.29-7.73,4a16,16,0,0,0,.56,2c.31.93.86,2.7,1.22,3.92s.83,2.75,1,3.41.82,2.65,1.34,4.44c1.17,4,.9,3.84,3.7,2.92,3-1,2.86-.74,2-3.65-1-3.56.29-4.65,2.28-1.88.54.77,1.37,1.82,1.84,2.35l.84,1,1.84-1c1-.58,2.15-1.26,2.53-1.5l.71-.43-2.34-2.16L168,75.94l.66-1.16c3.06-5.48-1.63-11.19-8.17-10m135.42,2.92,6.81,2.36c4.22,1.43,4,.77,2,6.64a40.46,40.46,0,0,0-1.52,4.92c0,2-2.16,3.35-3.23,2.06a3.34,3.34,0,0,0-1.6-.62,9.73,9.73,0,0,1-2.27-.73c-1.9-.95-5.69-2.13-6-1.85A25.41,25.41,0,0,0,288.73,84c-1.19,3.53-1.05,3.44-3.8,2.53-2.42-.79-2.58.52,1.18-10.17,1.08-3.09,2.16-6.25,2.39-7,.61-2,1.28-3.51,1.54-3.51s2.75.88,5.84,2M311,68c-.27,1-.24,1.11.38,1.11s1.15-1.15.57-1.52-.76-.32-1,.41m-248.55.9c-.37,1.45,0,3.58.64,3.38s.93-2.16.53-3.46c-.45-1.53-.77-1.51-1.17.08m262.18-.49c-.66.67-.11,1.27,1.72,1.88,2.18.72,2.33.86,2,1.82-.2.55-.13.75.37,1,.82.42.85.28-1.43,6.79a51.75,51.75,0,0,0-1.84,5.92,18.87,18.87,0,0,0,3.78,1.6c6.63,2.33,6.24,2.13,6,3.2-.14.77-.06,1,.43,1.13.77.24.77.24-.25,3.1-.83,2.35-.83,2.41-.27,2.71s.69.38,1.07-.92c.17-.57.78-2.37,1.36-4a32.21,32.21,0,0,0,1.06-3.28c0-.26-7.93-3.26-10.88-4.11-.87-.26-.85-.4.42-4,2.69-7.63,3.58-10.5,3.35-10.75-.55-.57-6.59-2.37-6.9-2.06M144.88,70.28c-6.28,2.1-5.59,1.67-5.07,3.25.23.71.76,2.43,1.18,3.82s1.29,4.24,1.93,6.36,1.32,4.38,1.49,5c.58,2.16.33,2.16,6.05.1,5.92-2.12,5.6-1.77,4.64-5.1-.73-2.57-.43-2.44-3.4-1.47-2.78.91-3.21.8-3-.75.06-.58.39-.82,1.68-1.26,2-.68,1.91-.48,1.49-2.59s-.61-2.14-2.64-1.33c-1.49.6-2.15.38-2-.65.09-.67.43-.91,2.47-1.71L152,73l-.06-1.27c-.18-3.81-.17-3.81-7.05-1.49M309,69a.94.94,0,0,0,.29,1.41c.54.2,1-.28,1-1.09,0-.51-.87-.73-1.27-.32M163,70.08a3.16,3.16,0,0,1,.43,3.43c-.66,1.23-3,1.83-3,.77a14.36,14.36,0,0,0-.59-2.26c-.72-2.26-.73-2,.08-2.36a2.65,2.65,0,0,1,3,.42m159.3.06a.65.65,0,0,0,.19.74c.63.4.83.28.83-.49s-.72-1-1-.25m-1.57,1.07c-.78.35-.86.75-.21,1a.72.72,0,0,0,1-.86c-.08-.34-.25-.37-.76-.14m-2.18,1.21c.6.73.11,1.26-1.05,1.13s-1.57.22-1.58,1.26a1.82,1.82,0,0,1-.42,1,4.73,4.73,0,0,0-.71,1.51c-.17.57-.87,2.63-1.56,4.58-4.89,13.85-4.93,14-4.54,14.36.25.23,4,1.56,14.31,5.06,4.32,1.47,4.74,1.5,4.75.31,0-.29.25-.36.91-.23,1.25.25,1.79-.93.69-1.52-.77-.41-.75-.94.12-3,1.25-3,1.7-2.55-5.17-4.88l-4.19-1.42.16-1c.14-.87.07-1-.49-1.19s-.61-.34-.51-.65c.37-1.23,4-11.6,4.17-11.84s-.92-.74-3.23-1.45c-.8-.25-.88-.39-.83-1.36s0-1.07-.55-1.07-.55.08-.28.4m7.72.8c-.39.72-.15,1.16.62,1.16.41,0,.57-.2.57-.7,0-.93-.78-1.23-1.19-.46m-191,.55c-1.08.29-2.15.6-2.38.69s-.37.71-.05,4c.74,7.53.72,7.2.29,7a1.73,1.73,0,0,1-.7-.82c-.17-.37-1.39-2.42-2.71-4.55l-2.41-3.89-2.73,1.2c-1.5.67-2.76,1.23-2.8,1.26S124,82.07,127.54,87l3.93,5.43c2,2.72,1.56,2.57,4.28,1.51,4.19-1.63,3.76-1.19,3.56-3.62-.1-1.18-.33-4.94-.5-8.36-.51-9.88-.16-9.09-3.6-8.16m157.11,0c-.24.77-.56.58,3.18,1.9,3.26,1.15,4.08,1.19,4.08.19,0-.46-.6-.77-3.21-1.63-3.75-1.25-3.8-1.26-4.05-.46m31.7.79c-.25.66.71,1.46,1.07.9a2,2,0,0,0,.24-.89c0-.68-1.05-.69-1.31,0m-12.43,1.34c-.63,1.58-.81,2.59-.44,2.59.19,0,.07.23-.26.52-1,.87-1.13,1.85-.24,1.85.63,0,.77-.17.92-1.11a9.16,9.16,0,0,1,.6-2c.73-1.55.83-2.42.3-2.62-.36-.14-.59.08-.88.77m6.81-.42a6.42,6.42,0,0,0,1.55.61c1.72.49,1.73.6.35,4.48-1.19,3.36-2.32,6.66-3.11,9.09-.5,1.56-.84,1.35,5.82,3.65,2.74.94,5.11,1.8,5.27,1.9.35.21-1.54,5.66-1.93,5.57-.15,0-2.6-.88-5.45-1.88s-6.42-2.23-7.92-2.74c-3.4-1.15-3.53.38,1.11-12.93,1.17-3.34,2.25-6.51,2.41-7a1.15,1.15,0,0,1,1.9-.72M10.75,77.38c.44,1.53,2.95,2.73,3.58,1.71.34-.55-1.43-2-2.66-2.24-1.08-.18-1.12-.16-.92.53m45.58.29c.15.14,0,.36-.46.52-2.5,1-5.82,6.84-4.65,8.25,2.17,2.61,16.79,4.09,19,1.92.84-.84-.88-7.23-2.06-7.68-1.49-.57,1-.85,3.75-.43,1.16.18,1.34.32,1.67,1.27.2.58.78,1.9,1.29,2.93l.93,1.87-3.48,3.35A24.38,24.38,0,0,1,68.34,93c-.24,0-1.64-.19-3.1-.44l-6.07-1c-1.88-.31-6.61-1.1-10.51-1.77s-7.22-1.2-7.35-1.2c-.69,0,.4-1.3,5.19-6.21L51.76,77l2.15.2a8.69,8.69,0,0,1,2.42.46M351.59,78a1.17,1.17,0,0,0,0,.9c.21.21,10.32,3.8,12.5,4.44,2.81.82,3.25,1.12,3.25,2.22,0,.78.14,1.07.59,1.18.76.2,1.25-1.46-4.12,13.86-2.22,6.34-2.23,6.36-1.3,6.36.45,0,.59-.3,2.18-4.88.62-1.79,2-5.79,3.09-8.88s2.21-6.4,2.51-7.34l.55-1.71-.79-.4a11.91,11.91,0,0,0-1.82-.71c-.57-.16-3.57-1.19-6.66-2.28s-6.36-2.22-7.26-2.51-1.84-.62-2.1-.73-.53,0-.66.48m-2.07,1a1,1,0,0,0,.22,1.39c.55.2,1.18-.55,1-1.14a.74.74,0,0,0-1.18-.25M347.4,80.6c-.22.69,0,1.19.57,1.19s.83-1.25.38-1.54-.75-.29-1,.35M57.64,82.16a25.9,25.9,0,0,0,5.21.35l4.42,0L67.8,84c1,2.92,1,3-3.06,3.26-3.82.27-11.07-1.09-11.42-2.15-.15-.44,1.09-3.12,1.77-3.85l.63-.67.57.61a4.77,4.77,0,0,0,1.35,1m18.43.67c.94,2,1.06,2.62.5,2.44s-1.65-2.47-1.9-3.75c-.3-1.54.37-.9,1.4,1.31M78,82.16c.62,1.28.62,2,0,2-.39,0-1.72-2.82-1.46-3.08.43-.42.89-.07,1.45,1.09m230.59-.65c-.22.7,0,1,.44.73s.42-1.34,0-1.34c-.15,0-.36.27-.47.61m-228.25,0c.42.67-.74,1.38-1.21.74-.23-.31-.34-.67-.26-.81a1.12,1.12,0,0,1,1.47.07m34.85,0c-2.11.43-4.38,1.74-4.57,2.64a2.93,2.93,0,0,1-.86,1.09c-1,.87-1.59,3.34-1.38,5.71,1,11,16.8,10.39,16.8-.6,0-6.06-4.43-10-10-8.84m230,.61c-.26.74-.41.83-1.13.69s-.87-.07-1.18,1c-.41,1.35-2.25,6.7-5,14.46-2.26,6.42-2.54,7.32-2.4,7.47s6.74,2.45,6.92,2.45a2.47,2.47,0,0,0,.38-.76c.22-.6.45-.74,1.08-.67s.83,0,1-.72.1-.81-.14-.81c-1,0-.76-2.75.36-3.91.63-.66,3,.79,2.83,1.73-.14.77-.07,1,.45,1.13.77.25.77.2-.14,2.81-1.1,3.14-1.25,3,4.39,4.75l1.71.54.44-.85c.38-.74.54-.82,1.15-.59s.73.17.9-.5,0-1.06-.86-1.35c-.25-.09.26-1.82,1.93-6.58,2.28-6.51,4.46-12.77,4.51-13s-.28-.36-.68-.49-2.48-.84-4.59-1.59-5.32-1.85-7.11-2.44c-3.78-1.24-4.1-1.43-3.69-2.19s.36-1.08-.29-1.25c-.43-.11-.65.06-.87.7M306.31,82c-.36.35-.25,1,.13.82s.28-.05.16.28-.06.49.1.49c.32,0,.34-.49,0-1.27-.12-.29-.31-.44-.42-.32M82.25,88.08v4.51L80,95l-5.83,6.15a40.54,40.54,0,0,1-3.79,3.73,26,26,0,0,1-.2-5.11l0-5.1,2.11-2.08c3.72-3.67,9.51-9,9.74-9a23.17,23.17,0,0,1,.21,4.52m270.33-.63,6.6,2.27c1.68.57,1.7.21-.23,5.69-.71,2-2.12,6.1-3.13,9-2.2,6.41-1.87,6-4.29,5.15s-2.47-.77-1.15-4.69a22.65,22.65,0,0,0,1-3.38c-.06-.06-1.51-.6-3.22-1.22L344.68,99c-.2-.07-.48.31-.65.86s-.64,1.92-1.07,3.06-.85,2.3-.94,2.59c-.22.66-.4.65-2.59-.13-2.36-.83-2.35-.83-1.81-2.34.25-.72.92-2.64,1.48-4.27s1.63-4.69,2.39-6.81,1.58-4.51,1.83-5.33c.67-2.2.75-2.25,2.53-1.59.85.32,3.88,1.38,6.73,2.37m-60.9-2.2a5.2,5.2,0,0,1-.3.74c-.06.11.14.34.45.51.46.24.62.16.89-.43s.24-.77-.26-1-.62-.21-.78.21m31.76.86c-.32.84-.18,1.3.38,1.3a.79.79,0,0,0,.34-1.48c-.4-.21-.58-.17-.72.18m41.87.56a.77.77,0,0,0,.55,1.33c.7,0,1.06-1.36.42-1.61s-.55-.22-1,.28m13.43.59c-.31.82.1,1.2,2.08,1.89s2.11.78,1.68,1.92c-.24.64-.19.75.46.91.86.22.88,0-.69,4.55-1,3-1.07,3-1.9,2.86-.49-.1-.85-.06-.85.11a2.66,2.66,0,0,1-.17.74c-.11.28.06.51.45.64.73.23.77.88.15,2.37-.52,1.24-.38,2,.34,1.87.31-.06.83-1.16,1.52-3.2a27.78,27.78,0,0,1,1.31-3.45c.28-.34,4.69.93,4.69,1.35,0,.1-.41,1.31-.91,2.69s-1,3-1.2,3.5c-.25.82-.42,1-1.06.89-1.18-.15-1.62.81-.7,1.51l.72.55-.81,2.4a8.31,8.31,0,0,0-.63,2.69c.48.79,1,.16,1.76-2,2.15-6.37,2-6.14,3-6.23s1.62-1.21.67-1.46c-.75-.2-.72-.77.16-3.38s1-2.38-2.16-3.46c-2.93-1-3.11-1.16-2.62-2.13a1,1,0,0,1,1.14-.65c1.3.13,1.38-1.35.09-1.81-.17-.06-.07-.77.28-1.78.68-2,.94-1.77-3.12-3.18-3.88-1.35-3.5-1.27-3.71-.72m-260.18.86c1.72,1.72,1.19,4.81-.91,5.33-2.79.7-4.92-3.39-2.84-5.47,1.21-1.21,2.44-1.17,3.75.14m202.53-.35a.84.84,0,0,0,.88,1.12c.49,0,.75-1.26.32-1.54q-.93-.59-1.2.42m42.11.3c-.27.52-.24.7.2,1,.6.44,1,.1,1-.83,0-.77-.83-.91-1.22-.19m13.43.64c-.36.79-.22,1.07.54,1.07.61,0,1-1.21.49-1.54s-.68-.29-1,.47m-296.14.63a28.36,28.36,0,0,0-1.6,5.16c.66.67,2.48-2,2.46-3.68,0-1.92-.42-2.59-.86-1.48m294,.79c-.35.94.47,1.46,1.06.67s.37-1.13-.3-1.26c-.3-.06-.6.17-.76.59M52.8,92.6c4.4.75,9.55,1.61,11.45,1.91,4.39.68,4.11.43,3.94,3.5-.08,1.42-.2,3.71-.25,5.09l-.11,2.52-1.15,0c-1.39,0-5.17-.56-16.54-2.35-1.47-.23-4.17-.63-6-.89s-3.52-.53-3.75-.62c-.42-.16-1-10.39-.66-11,.19-.31,1.5-.12,13.07,1.86m336.37-1.47c-.25,1-.53.77,2.64,1.84l2.66.9-.06,1c-.05.81.07,1.07.52,1.19.76.2.73.68-.16,3s-.93,2.85-.12,2.73c.5-.08.85-.78,1.89-3.8.7-2,1.36-3.92,1.47-4.19s-.05-.57-.93-.84-6.32-2.18-7.38-2.58c-.19-.07-.42.23-.53.67m-17,.45c-.3.79-.42.86-.93.59-.75-.4-.64-.59-2.36,4.36-1.38,4-1.41,4.17-.83,4.32.74.19.5.6,1.79-3.08.59-1.7,1.14-3.26,1.2-3.45.12-.35,1.78,0,3.79.83,1,.41,1,.7-.1,3.81-1.33,3.69-1.35,3.85-.59,4.05.54.14.61.31.45,1.06s-.07,1,.21,1.14c.66.42.77.32,1.26-1.12.59-1.73.59-2.17,0-2.17-.82,0-.76-.71.3-3.71,1.37-3.9,1.41-3.73-1-4.58-1.14-.4-2.08-.75-2.08-.78s.14-.43.31-.88c.23-.61.21-.87-.07-1-.67-.43-1-.27-1.34.66m-39.06.13c-.21.54.07,1.33.47,1.33s1-1.23.57-1.52-.84-.32-1,.19m-138.67,0c-1.53.63-2.4,2.29-3.53,6.7-.47,1.83-1.21,4.59-1.64,6.13-1,3.53-.79,2.73-2.38,9.33-.74,3.1-2.36,9.62-3.6,14.51s-2.41,9.61-2.61,10.51-.74,3-1.18,4.59C177,152.79,176.87,154,178.29,154h1l.51-2.44c.28-1.35.69-3.18.91-4.07s.76-3.23,1.2-5.19c1-4.4,4.66-19,8.42-33.45.68-2.61,1.47-6,1.77-7.55,1.37-7.08,2.07-7.86,6.92-7.59,7.28.39,24.16,1.83,35,3l4.26.45c.25,0-.33,6.22-.85,9-.3,1.63-.85,4.64-1.21,6.67-.67,3.76-2.76,14.17-4.39,21.83-1.14,5.37-1.75,10.52-1.26,10.68s.41.57-.21.73c-.43.11-.6.54-.77,1.89a31.38,31.38,0,0,1-.78,3.8c-.31,1.14-.56,2.11-.56,2.17a2.29,2.29,0,0,0,1,0l.94-.09.69-3.11a18.63,18.63,0,0,0,.54-3.91c-.08-.44,0-.88.14-1a1.4,1.4,0,0,0,.29-1,1.94,1.94,0,0,1,.27-1.09,6.88,6.88,0,0,0,.58-2.06c.17-1,.65-3.44,1.06-5.48s.94-4.7,1.18-5.92,1-5.22,1.8-8.88c1.37-6.71,2.87-15.28,3.24-18.43.32-2.74,1.35-1.78,1.34,1.26,0,1.44-1.78,11.16-4,22.06a105.39,105.39,0,0,0-1.9,10.91,4,4,0,0,1-.47,1.92,1.81,1.81,0,0,0-.31,1.31,1.25,1.25,0,0,1-.08.94,7.18,7.18,0,0,0-.71,3.31.85.85,0,0,1-.15.78,4.82,4.82,0,0,0-.51,1.55c-.12.65-.46,2.17-.77,3.38-.82,3.25-.77,3.58.49,3.58.58,0,1.11-.17,1.19-.37a94.22,94.22,0,0,0,1.51-9.39,5.73,5.73,0,0,1,.38-2.08,3.08,3.08,0,0,0,.44-1.34c.12-.65.33-1.58.48-2.07s.48-1.95.74-3.26c.69-3.55,1.61-8.26,2.2-11.25.3-1.46,1-4.79,1.46-7.4s1.21-6.13,1.55-7.84c1.12-5.63.48-9-2.4-12.59l-.94-1.18-3.16-.36c-1.74-.19-5.42-.56-8.19-.81s-5.44-.53-5.92-.61c-4.15-.69-26.79-2.1-27.69-1.73m186,.45c-.21.55-.14.75.3,1,.68.32.82.21.92-.72s-.86-1.17-1.22-.24m-33.89.31c-.21.84-.44.69,3.25,2s3.55,1.33,4,.54.63-.66-3.3-2-3.71-1.36-3.93-.53m40.51,0a.87.87,0,0,0,.81,1.15c.3,0,.6-1.13.39-1.48-.32-.51-1-.33-1.2.33m-56.1,1c0,.54.16.74.6.74s.59-.12.59-.27a2.69,2.69,0,0,1,.18-.74c.13-.35,0-.47-.59-.47s-.78.14-.78.74m47.38.15c0,.68.13.89.57.89.71,0,1.14-1.15.57-1.51-.76-.49-1.14-.28-1.14.62m-335.91.9a8.1,8.1,0,0,0-.35,1.88L41.92,98l1.36.52c1.43.55,4.38.53,4.94,0a4.31,4.31,0,0,0,.36-1.73l.08-1.44-2.37-.53c-2.74-.62-3.6-.68-3.86-.25m202.83,1.18c1,1.61,1.36,4.46,1.35,10.28,0,6.52.12,7,1.11,4,1.8-5.51,1.21-10.9-1.53-13.92-.6-.67-1.29-.93-.93-.36m-198,.64c.69.57-.11,1.43-1.33,1.42-1.94,0-2.44-.26-2.44-1.25v-.89l1.71.21a6.62,6.62,0,0,1,2.06.51M392.55,96a2.65,2.65,0,0,1-.17.71c-.1.26.07.48.44.58.62.17,1.13-.67.77-1.26-.23-.37-1-.39-1,0m-337.63.25c-1.12,1.82-.35,4.22,1.37,4.23a28,28,0,0,1,3.3.3c2.45.35,2.53.29,2.53-2.29V96.64l-2-.18-3.54-.32a3.54,3.54,0,0,0-1.67.08m20,.43c-.47.47-.46,1,0,1.21A.75.75,0,0,0,76,97c-.13-.67-.61-.84-1.08-.37m315.41.83c-.22.69,0,1.18.59,1.18s.9-1.19.4-1.51-.79-.32-1,.33M60.94,98.54c0,.94-.16,1-2.67.76-2.24-.2-2.7-.52-2.27-1.63.29-.76,4.94.06,4.94.87m271.83-.69c-.24.63,0,1.09.65,1.1.41,0,.75-1.31.39-1.54-.55-.36-.78-.26-1,.44M198.56,99.17c-2.66,9.8-5.06,20.28-4.72,20.49a10.56,10.56,0,0,0,2.51.43c1.17.11,3.59.39,5.38.63,4.26.58,9.22,1.21,15.24,1.93,2.69.33,5.82.72,7,.88,3.89.53,4.52.44,4.74-.66.11-.53.45-2.1.77-3.48.93-4.13,1.39-6.18,2.2-9.92.42-2,1-4.67,1.36-6,.63-2.65.55-3-.78-3-.32,0-2.65-.2-5.18-.44l-11.4-1c-3.74-.33-7.94-.72-9.32-.88s-3.6-.35-4.91-.45L199,97.45l-.46,1.72m52.27-1.25c-.43,1.14.46,4.54,1.25,4.8.38.12,1-1.16,1-2,0-1.59-1.85-3.85-2.27-2.77m79.85,1.14c-.39,1,.57,1.64,1.08.72s.48-1-.22-1.21c-.44-.11-.68,0-.86.49m-123.92.34c3.26.26,6.12.53,6.37.6s3.1.32,6.36.58c7,.54,7.47.62,7.69,1.32a27.2,27.2,0,0,0,1.79,3c1.67,2.54,1.85,3.23,1.31,5-.17.56-.49,1.9-.71,3a94.11,94.11,0,0,1-2.18,9.53c-.21.21-8.23-.69-21.82-2.45l-2.68-.34-1.25-2.26c-.69-1.24-2-3.51-2.89-5l-1.63-2.78.42-1.37c.24-.75.86-3.1,1.38-5.21,1.08-4.35,1.07-4.32,1.56-4.15.2.07,3,.34,6.28.59m170.58,1.7c-.2.79.18,1.26.83,1a.85.85,0,0,0,0-1.5c-.64-.25-.62-.26-.82.48m-147,2.14c.94,1.64,1.16,2.66.53,2.46-.47-.16-2.62-3.8-2.42-4.11.3-.49,1,.15,1.89,1.65m1.62-1.35c.2.32-.1,1.21-.41,1.21-.12,0-.37-.33-.56-.74-.34-.75.53-1.17,1-.47m136.85-.07a1,1,0,0,0,.25,1.39c.48.19,1.18-.82.88-1.3a.8.8,0,0,0-1.13-.09m23.23.45c-.2.55-.14.73.34.91.72.28.78.24.88-.67s-.87-1.18-1.22-.24m-2.08,1.2c-.25.67,0,1.1.75,1.11.49,0,.75-1.26.32-1.53-.58-.37-.8-.28-1.07.42m-44.12.89c-.3.82-.16,1.11.55,1.11s1.05-1.2.53-1.54-.81-.27-1.08.43m23.77.14c-.18.73.41,1.49.82,1,.57-.61.55-1.47,0-1.62s-.65,0-.79.59m8.07.55c-.32.82-.2,1.24.39,1.39.42.11.61,0,.75-.6.27-1-.77-1.76-1.14-.79m-7.3,1.8c-.38,1-.38,1,.46,1,.4,0,.74-.12.74-.27a2.45,2.45,0,0,1,.16-.7c.11-.27-.07-.49-.46-.59s-.69,0-.9.57m5.18-.16a.87.87,0,0,0,.79,1.15c.26,0,.56-1.23.38-1.53-.29-.47-1-.24-1.17.38m-15.63.62a.83.83,0,0,0,.72,1.12c.27,0,.84-1.4.64-1.6a.86.86,0,0,0-1.36.48m-2.12,1.12c-.22.7,0,1.19.59,1.19s.9-1.2.4-1.51-.78-.33-1,.32m23.79.12c-.35.78-.07,1.34.68,1.36.42,0,.51-1.35.11-1.74s-.47-.31-.79.38m-10.18.28c-3.25,9.11-3.14,8.36-1.4,8.9.78.24,2.33.77,3.47,1.18,2.05.74,2.52.75,2.53.09,0-.82.49-1.16,1.14-.82.92.49,1.29-1,.4-1.62-.59-.42-.59-.43.25-2.87,1-3,1-2.89.19-2.89-.52,0-.75.25-1,1.11-1.23,4.14-2,5.71-2.58,5.54a16,16,0,0,1-4-1.61c0-.12.54-1.73,1.19-3.59s1.18-3.39,1.18-3.41c0-.26-1.25-.27-1.34,0m8,1c-.26,1.06.33,1.62.9.85s.54-.84-.14-1.26c-.49-.31-.59-.26-.76.41m-181,3.79a23.08,23.08,0,0,0,1.3,2.23,21.76,21.76,0,0,1,1.94,3.38c0,.75-1-.23-2.22-2.2-2.51-4-2.88-4.74-2.68-5.24s.51-.33,1.66,1.83m182.57,1.06c-.23.87,1,1.35,1.35.51a1.23,1.23,0,0,0,.06-.85c-.31-.5-1.25-.27-1.41.34m-183.07,1.71c1.43,2.1,1.65,2.71,1,2.71-.48,0-2.46-2.88-2.73-4-.33-1.32.34-.84,1.76,1.26m181.08-.52c-.28.51-.26.7.05.9.68.42,1.14.29,1.14-.33,0-.33,0-.69,0-.82,0-.53-.9-.34-1.21.25m-182.56,1.89c.63,1,.61,1-.24,1s-1.16-.39-.91-1.19.57-.74,1.15.14m-80,4.3a11.92,11.92,0,0,0-7.12,5.25c-1.09,1.87-.79,1.84,2.93-.27,1.84-1,4.15-2.25,5.12-2.66l3-1.3c2.12-.9-.89-1.67-4-1m-79.3,2.57a27.08,27.08,0,0,0-4.4,1.6,18,18,0,0,0,4.14.18c5.51-.06,8.06.67,11.58,3.3,1.16.86,1.22.6.21-.86-2.33-3.36-7.24-5.15-11.53-4.22m89.41,1.28c-9.42.3-9.64.41-18,8.79-8.66,8.72-11.2,12.9-11.2,18.47,0,1.69,1.66,1.23,1.92-.54a24.38,24.38,0,0,1,5.51-11.21c1.88-2.27,2.17-2.3,3.89-.46,2.34,2.5,2.24,4.13-.55,8.84S105.52,154,106.7,154c.56,0,1-.14,1-.3a17.11,17.11,0,0,1,1.43-2.59c3.94-6.32,4-8.52.39-11.64-1.88-1.62-1.91-1.38.48-3.82,6.5-6.62,8.85-7.82,15.57-8,6-.12,6.07-.07,4.07,2.14a9.82,9.82,0,0,0-1.51,1.94c0,.16-.63.56-1.4.9-3.33,1.47-6.46,6.13-4.89,7.27.47.35.45.43-.37,1.07-2.11,1.64-6.13,6.65-6,7.49.19,1.34,1.45.73,3.34-1.62,3.2-4,5-5.5,5.92-4.85,1.48,1.08,6-2.86,6.56-5.76.16-.83,6.13-5.67,6.51-5.29a31.73,31.73,0,0,1,1,3.26c.47,1.72,1.13,3.87,1.47,4.79.87,2.33.94,2.19-2.36,5.38a55.51,55.51,0,0,0-4.51,4.91c-1.73,2.26-1.67,2.24-5,1.39-3.5-.91-4.74-.53-7.6,2.31l-1,1h.76a6,6,0,0,0,2.3-1c2.24-1.5,7.94-1.12,7.52.51-.11.43,0,.53.83.53s1-.15,1.13-.59.3-.59.48-.59.32.26.32.59a.52.52,0,0,0,.57.59c.5,0,.53-.12.28-1.23a2.16,2.16,0,0,1,.4-2.21c.84-1.23,1-1.24,1.23-.08.31,1.54.22,2.12-.45,2.83l-.65.69h1.32c1.27,0,1.43-.11,4.33-2.95,4.45-4.36,4.52-5.25,1.25-16.09-2.54-8.4-2-8.06-6.93-4.39-5.72,4.27-5.69,3,.08-3.18a1.41,1.41,0,0,0,.29-1c-.11-.76,0-.75-8.38-.48m169.21.54c-11,3.68-13.48,17.65-3.75,21.35.54.21.79.52.79,1s.08,1.34.18,2.15c.21,1.8-.69,2.55-3.44,2.84-1.13.12-.47.19,2.15.22l3.78.05-.19-2.47-.19-2.47,3.47,0,3.47,0-.19,1.19c-.1.65-.27,1.75-.36,2.44l-.17,1.26h1.05c1.13,0,1.36-.53,1.89-4.35.16-1.15.29-1.3,1.75-2,12.31-6,2.86-25.59-10.24-21.22m-97.11,1.11c-5.72,1.24-9.49,4.62-11,9.85-1.89,6.62,1.84,11.95,9.17,13.09,15.29,2.37,21.87-19,7-22.81-2.69-.68-2.65-.68-5.2-.13m-163.88.31c-2.41.43-8.15,1.71-9.77,2.19-7.59,2.25-11,3.38-19.1,6.33L.69,138.27.6,139.34c-.12,1.34-.66,1.43,6-1,15.24-5.52,26.67-8.64,32-8.72,3.16,0,4.69.55,6.79,2.66A6.5,6.5,0,0,0,47,133.6c.15,0,.36.4.46.89s.36.89.63.89a.47.47,0,0,1,.45.47,12.44,12.44,0,0,0,1.28,2.75c2.49,4.43,5.1,11.11,5.42,13.87L55.4,154h1.29c2.23,0,1.38-3.53-3-12.29-6.33-12.69-10.08-15.44-19-13.88m171.09,1.47c7.72,4,7,15.22-1.16,19-10.31,4.72-20-3.32-15.4-12.75,2.91-6,11.12-9,16.56-6.22m98.6.11c4.55,2.6,6.38,9.93,3.52,14.07-2.66,3.86-13.26,4.36-17.06.8-7.94-7.44,3.87-20.41,13.54-14.87m-84.61.59c-2.6,1.05-3.73,2.58-3.73,5.05,0,4.19,4.1,6.51,8,4.52,6.79-3.48,2.81-12.42-4.27-9.57m4.72,1.34a3.41,3.41,0,0,1,1.8,3.65c-.57,3.54-5.5,5.42-7.75,3-3.47-3.78,1-8.7,5.95-6.61m-26.64.21c-.07.21-.24.92-.38,1.58l-.25,1.18-1.77.15-1.77.15-.36,1.77c-.69,3.3-.5,3.84,1.36,3.94l1.58.09-.2,1.89-.2,1.89,1,.16c.55.08,1.88.23,3,.33l2,.18.19-1.13c.43-2.54.48-2.6,2.27-2.7l1.63-.08.39-2.51c.45-2.89.5-2.77-1.38-3.05l-1.44-.21.09-1.67a3.92,3.92,0,0,0-.15-1.8c-.68-.4-5.42-.54-5.54-.16m95.16.86c-3,1.75-3.25,6.17-.46,8.84,1.23,1.18,1.3,1.06.41-.66-1.34-2.6-.66-6.54,1.42-8.18,1.08-.85.09-.85-1.37,0m-189.28.21c-1,1.16-.34,2.62,1.1,2.26a1.37,1.37,0,1,0-1.1-2.26m98.47.34a3.22,3.22,0,0,1,0,1.6c-.3,1.58-.15,1.74,1.81,2.09,1,.19,1.11.27,1.11,1.3,0,1.7-.28,1.94-2,1.7l-1.49-.21-.2,1.14c-.54,3.16-.44,3.07-3.27,2.61l-.92-.16.28-1.62c.39-2.26.24-2.51-1.55-2.51-1.48,0-1.49,0-1.48-1,0-2,.2-2.26,2-2.36,1.54-.08,1.66-.14,1.91-1,.66-2.21.68-2.23,2.22-2a5.59,5.59,0,0,1,1.64.38m18,1.19c-1.91,1.71-1.84,1.88,1,2.46,3.09.63,3.31.4,2.16-2.37-.8-1.94-1.12-1.94-3.2-.09M53.09,133.9c-.53.87,1,2.19,1.91,1.64.42-.26.4-1.15,0-1.58s-1.61-.47-1.87-.06m-17.61.5c-3.35,1.22-2.58,6.11,1,6.46,1.92.19,2.63,0,2.43-.8-.11-.42,0-.54.27-.42,1,.38,1.41-2.69.53-3.93a4.14,4.14,0,0,0-4.25-1.31m93.8.47c.44.53-.34,2-2,3.84l-1.36,1.47-1.1-.66c-1.33-.78-1.35-1-.23-2.47,1.66-2.19,3.84-3.21,4.69-2.18m93,.06a.44.44,0,1,1-.44-.44.45.45,0,0,1,.44.44M38.39,136.68a1.31,1.31,0,0,1,.51,1.49c-.45,2.24-4,1.63-4-.68,0-1.78,1.93-2.22,3.5-.81m-17.71,1-1.93.87c-.49.22-2.69,1.13-4.88,2s-5.33,2.18-7,2.86-3.7,1.53-4.59,1.88c-1.35.54-1.65.79-1.72,1.45-.12,1,.07,1,1.92.18.78-.34,3.49-1.47,6-2.49s6.05-2.5,7.84-3.26,3.56-1.46,3.93-1.55a1.59,1.59,0,0,0,.83-.41c.47-.76.9-.09,2.95,4.62,1.44,3.33,2,4.3,2.38,4.3s.37.13.16.52a1.25,1.25,0,0,0,.13,1.26,4.81,4.81,0,0,1,.12,3.57c-.24.45-.21.57.15.57s.63-.76.48-1.59c0-.14.15-.18.39-.09,1.23.47,1.28-1.41.1-3.34a4.92,4.92,0,0,1-.68-1.48c-.06-.47-3.4-8.18-4.12-9.49-.5-.9-1.16-1-2.52-.4m21,.66c-1.48,1.48-1.59,3.38-.16,2.83.54-.21,1-1.7.52-1.85-.73-.24-.23-.5,1.08-.58a3.88,3.88,0,0,0,1.68-.37c.39-.39.85-.37.61,0a2.07,2.07,0,0,0,.29,1.33,1.85,1.85,0,0,1-3,2.2c-.67-.63-1.61-.53-1.61.18,0,1.3,2.69,2.44,4.24,1.79,2.88-1.2,2.91-5.32,0-6.29-1.88-.63-2.48-.51-3.74.74m356.22,1.09A205.53,205.53,0,0,0,376,150c-2.51,1.4-4.61,2.55-4.68,2.55a8,8,0,0,0-1.21.74L369,154h1.71a4.94,4.94,0,0,0,3.4-1.08c3.34-2.13,17-8.61,24-11.39l2.38-.94v-1.14a4.44,4.44,0,0,0-.07-1.13s-1.21.47-2.59,1m-80.83-.07c0,1.61-2.92,7.87-4.41,9.45-.93,1-1,1.11-.42,1.11,3.3,0,6.08-4.46,5.56-8.95-.14-1.24-.73-2.54-.73-1.61m-132.26,1.85a22.7,22.7,0,0,0-1.56,6.77v1.5l.57-.74c.87-1.13,1.54-4,1.43-6.22-.08-1.66-.14-1.84-.45-1.31M32,141.92c-1.61.46-3.11,2.8-2.18,3.38a1.21,1.21,0,0,1,.3.91c0,2.58,5,3.29,5.93.84.72-1.9.07-4.46-1.19-4.67A4.06,4.06,0,0,1,33.8,142a3,3,0,0,0-.74-.33l-1,.3m185.57.71a5.24,5.24,0,0,0-1.59,9.42c1.42,1,4.79,1.08,6,.16.39-.3.55-.55.36-.55s-.27-.15-.16-.32,0-.28-.2-.21c-2.53.73-3.22,1-3.22,1.19,0,.53-2.85-1.81-3.35-2.75-1.85-3.54,2.46-7.45,6.41-5.8a3.42,3.42,0,0,1,2.31,2.73c.18.72.44,1.23.59,1.14.52-.32.23.1-.93,1.36s-1.54,2.36-.75,2.36,1.81-1.76,2.13-3.26,0-3.25-.5-3.25c-.15,0-.28-.18-.28-.39,0-1.68-3.9-2.73-6.78-1.83M34.86,144.14c.49.63.54.89.28,1.39s-.22.69.23,1,.49.41,0,.25a2.31,2.31,0,0,0-1.31.13,2.13,2.13,0,0,1-2.62-1,1.48,1.48,0,0,0-.81-.8c-.57-.22-.53-.29.54-1,1.52-1,2.85-1,3.66,0m285.49.38a8.07,8.07,0,0,0-.34,1.55,9.25,9.25,0,0,1-2,3.59l-.77.82h.83c2.89,0,4.84-3.37,3.54-6.1-.61-1.29-.83-1.27-1.25.14m-178.8.48c-.08,1.28-1.43,3.79-2,3.62-1.08-.36-.91-3,.26-4,1.38-1.2,1.79-1.11,1.69.36m-103,.15c-2.29.92-2.14,4.85.24,6.08s4.67-.06,4.93-2.8-2.43-4.38-5.17-3.28M217,146.32c0,.85,1.67,4.45,2.06,4.45a16.75,16.75,0,0,0,3.72-3.93c0-.41-1-.67-3.63-.93-2-.2-2.15-.18-2.15.41m181.65.49c-1,.42-3.51,1.46-5.63,2.33-7,2.84-6.64,2.63-6.06,4s2.41,1.27,3-.31c.27-.69.67-1.19.94-1.19.57,0,.58.27,0,1s-.56,1.35,0,1.35c.22,0,.85-.77,1.4-1.7a4.69,4.69,0,0,1,1.57-1.81c.52-.1.51,0-.17,1.18-1.13,2-1.21,2.33-.53,2.33.32,0,.58-.14.58-.32,0-1.39,2.66-4.3,4.7-5.14s2.11-.95,2.11-1.7a2.34,2.34,0,0,0-.07-.82s-.87.35-1.85.76M41.49,146.7c1.31,1,.56,3.48-1,3.48a2.41,2.41,0,0,1-2-2,1.91,1.91,0,0,1,3.05-1.45m96.67,1.89c.1,1.66-.85,3.1-1.44,2.17a3.61,3.61,0,0,1,.21-3.12c.7-1.07,1.13-.74,1.23,1m82.2-1.11c.08.14-.12.5-.45.8-.63.57-1.14.26-1.15-.69,0-.42,1.35-.51,1.6-.11m-38.31,4.91c-.43.52-.13,1.64.44,1.64s1-.95.69-1.56-.66-.65-1.13-.08m-153.48.06a.92.92,0,0,0,.69,1.58c1,0,1,0,.6-1-.27-.72-.87-1-1.29-.56m159.6.79c-.22.57,0,.79.9.79.52,0,.68-.14.61-.52-.12-.64-1.29-.85-1.51-.27m3.85.09c-.42.41-.19.7.55.7.48,0,.72-.14.64-.37a.81.81,0,0,0-1.19-.33" transform="translate(-0.45 142.25)"/></g></svg>