<!--?xml version="1.0" encoding="iso-8859-1"?-->
<!-- Generator: Adobe Illustrator 19.0.0, SVG Export Plug-In . SVG Version: 6.00 Build 0)  -->
<svg version="1.1" id="Capa_1" xmlns="http://www.w3.org/2000/svg" xmlns:xlink="http://www.w3.org/1999/xlink" x="0px" y="0px" viewBox="0 0 512 512" style="enable-background:new 0 0 512 512;" xml:space="preserve">
<path style="fill:#FED130;" d="M495.287,313.844L269.569,88.126c-1.828-1.828-4.159-3.069-6.696-3.564l-96.66-18.874
	c-4.242-0.828-8.619,0.508-11.675,3.564l-85.276,85.276c-3.057,3.057-4.393,7.433-3.564,11.676l18.874,96.659
	c0.495,2.537,1.736,4.868,3.564,6.696l225.718,225.718c12.149,12.149,31.847,12.149,43.996,0L495.287,357.84
	C507.436,345.691,507.436,325.993,495.287,313.844z M158.559,158.55c-9.248,9.248-24.242,9.248-33.49,0s-9.248-24.242,0-33.49
	s24.242-9.248,33.49,0C167.807,134.309,167.807,149.302,158.559,158.55z"></path>
<path style="fill:#FCA629;" d="M262.873,84.562l-96.66-18.874c-4.242-0.828-8.619,0.508-11.675,3.564l-33.786,33.786l107.147,21.15
	l250.52,250.52l16.868-16.868c12.149-12.149,12.149-31.847,0-43.996L269.569,88.126C267.741,86.299,265.41,85.058,262.873,84.562z"></path>
<path d="M196.206,231.967c-8.845-8.846-4.509-17.865-8.064-21.42c-2.688-2.688-8.586-1.301-11.014,1.127
	c-5.03,5.03-2.081,19.427,9.279,30.787c11.969,11.968,27.058,14.223,39.46,1.821c22.462-22.461-9.106-46.57,1.648-57.324
	c4.163-4.162,10.234-3.122,16.478,3.122c7.285,7.285,5.984,12.575,8.673,15.264c3.122,3.122,8.498,0.521,10.493-1.474
	c5.724-5.724-4.424-18.299-9.54-23.416c-9.973-9.973-25.496-16.651-38.418-3.729c-20.554,20.554,11.274,44.403-1.735,57.411
	C208.261,239.338,201.409,237.17,196.206,231.967z"></path>
<path d="M256.654,311.147c3.035,3.035,9.106,5.116,11.794,2.428c0.261-0.26,0.434-0.606,0.695-1.04l37.811-71.288
	c1.821-3.382-0.173-7.805-3.468-11.101c-3.21-3.209-7.632-5.204-11.014-3.382l-71.287,37.811c-0.433,0.261-0.867,0.521-1.04,0.694
	c-2.775,2.775-0.607,8.759,2.429,11.795c1.908,1.908,3.989,2.775,6.07,1.56l14.83-8.239l19.861,19.86l-8.239,14.831
	C253.879,307.158,254.747,309.239,256.654,311.147z M254.659,263.882l34.17-19.079l-19.08,34.169L254.659,263.882z"></path>
<path d="M343.12,270.822c-2.862-2.862-6.677-4.596-9.106-2.168l-56.37,56.37c-2.342,2.342-1.128,5.984,1.387,8.499l27.491,27.491
	c2.255,2.255,5.898,0.868,8.326-1.561c2.515-2.515,3.816-6.071,1.561-8.326l-21.161-21.161l50.04-50.04
	C347.716,277.5,345.896,273.597,343.12,270.822z"></path>
<path d="M409.725,357.2c2.255,2.255,5.897,1.214,8.586-1.474c2.342-2.342,3.73-5.984,1.301-8.413l-30.873-30.873
	c-2.516-2.516-6.158-3.729-8.499-1.388l-56.284,56.284c-2.342,2.342-1.128,5.984,1.388,8.5l30.873,30.873
	c2.429,2.429,6.071,1.041,8.412-1.301c2.688-2.688,3.729-6.331,1.475-8.586l-24.544-24.543l17.432-17.431l13.183,13.183
	c2.428,2.428,5.897,1.213,7.892-0.781c2.341-2.342,3.209-5.81,0.954-8.065l-13.183-13.183l17.345-17.345L409.725,357.2z"></path>
<path d="M110.523,141.806c0,8.358,3.255,16.216,9.165,22.126c6.101,6.101,14.112,9.15,22.126,9.15
	c8.012,0,16.027-3.051,22.126-9.149h0.001c12.2-12.201,12.2-32.052-0.001-44.253c-3.81-3.81-8.366-6.429-13.202-7.86
	c-1.026-7.02-3.11-14.509-5.914-22.091l15.093-15.094c1.268-1.268,3.074-1.819,4.836-1.477l96.66,18.874
	c1.055,0.206,2.015,0.717,2.774,1.476l178.478,178.478c2.973,2.972,7.791,2.972,10.764,0c2.972-2.972,2.972-7.791,0-10.763
	L274.95,82.744c-2.909-2.908-6.581-4.863-10.619-5.651l-96.66-18.874c-6.734-1.315-13.657,0.796-18.516,5.652l-10.763,10.763
	c-9.852-20.535-23.429-39.902-34.011-50.484C76.68-3.551,36.15-8.096,14.031,14.022C-8.086,36.14-3.543,76.671,24.158,104.372
	c11.831,11.832,31.218,24.753,50.537,33.96l-10.814,10.815c-4.856,4.855-6.969,11.776-5.653,18.516l18.874,96.66
	c0.789,4.037,2.743,7.709,5.652,10.619l16.954,16.953c1.485,1.486,3.434,2.229,5.381,2.229c1.948,0,3.895-0.743,5.382-2.229
	c2.972-2.972,2.972-7.791,0-10.763L93.518,264.18c-0.76-0.761-1.271-1.72-1.477-2.774l-18.874-96.66
	c-0.344-1.76,0.208-3.567,1.477-4.835l58.116-58.117c1.024,3.342,1.821,6.505,2.394,9.457c-5.671,1.227-11.066,4.031-15.465,8.43
	C113.778,125.589,110.523,133.447,110.523,141.806z M86.169,126.859c-19.192-8.47-39.722-21.724-51.246-33.249
	C24.128,82.815,17.245,69.508,15.544,56.14c-1.609-12.645,1.677-23.779,9.252-31.354C40.978,8.603,71.854,13.146,93.62,34.914
	c11.593,11.593,24.723,31.898,33.246,51.25L86.169,126.859z M143.541,143.531c3.975-3.975,6.299-9.103,7.309-15.006
	c0.819,0.558,1.603,1.19,2.328,1.916c6.266,6.266,6.266,16.461,0.001,22.727c-6.266,6.265-16.462,6.266-22.728,0
	c-0.72-0.72-1.358-1.501-1.92-2.324C134.684,149.799,139.713,147.359,143.541,143.531z M130.452,130.442
	c1.538-1.538,3.315-2.694,5.211-3.477c-0.554,2.461-1.509,4.427-2.886,5.804c-1.486,1.486-3.561,2.369-5.811,2.87
	C127.763,133.719,128.938,131.956,130.452,130.442z"></path>
<path d="M500.669,308.462l-22.255-22.254c-2.973-2.972-7.791-2.972-10.764,0c-2.972,2.972-2.972,7.791,0,10.763l22.255,22.254
	c4.439,4.439,6.883,10.34,6.883,16.616c0,6.277-2.445,12.178-6.883,16.617L352.467,489.896c-4.438,4.438-10.339,6.883-16.615,6.883
	c-6.278,0-12.179-2.444-16.616-6.883L135.509,306.17c-2.973-2.972-7.791-2.972-10.764,0c-2.972,2.972-2.972,7.791,0,10.763
	l183.726,183.726c7.313,7.313,17.037,11.341,27.38,11.341c10.342,0,20.066-4.028,27.379-11.341l137.438-137.438
	C515.765,348.124,515.765,323.56,500.669,308.462z"></path>
<g>
</g>
<g>
</g>
<g>
</g>
<g>
</g>
<g>
</g>
<g>
</g>
<g>
</g>
<g>
</g>
<g>
</g>
<g>
</g>
<g>
</g>
<g>
</g>
<g>
</g>
<g>
</g>
<g>
</g>
</svg>
