<svg id="Layer_30" enable-background="new 0 0 496.016 496.015" height="512" viewBox="0 0 496.016 496.015" width="512" xmlns="http://www.w3.org/2000/svg" xmlns:xlink="http://www.w3.org/1999/xlink"><linearGradient id="SVGID_1_" gradientUnits="userSpaceOnUse" x1="248.008" x2="248.008" y1="496.015" y2="0"><stop offset="0" stop-color="#9f2fff"></stop><stop offset="1" stop-color="#0bb1d3"></stop></linearGradient><path d="m440.016 208.015c-6.968 0-13.803 2.397-19.245 6.75l-31.562 25.25h-85.193v-17.518c0-37.001-13.045-73.033-36.732-101.457-4.779-5.735-11.802-9.025-19.268-9.025s-14.489 3.29-19.267 9.024c-23.688 28.424-36.733 64.456-36.733 101.458v17.518h-85.194l-31.562-25.25c-5.441-4.353-12.276-6.75-19.244-6.75s-13.803 2.397-19.245 6.75l-36.755 29.405v198.742l36.732 44.079c4.779 5.735 11.802 9.025 19.268 9.025s14.489-3.29 19.268-9.024l32.479-38.976h280.506l32.479 38.975c4.779 5.735 11.802 9.025 19.268 9.025s14.489-3.29 19.268-9.024l36.732-44.079v-198.743l-36.756-29.404c-5.441-4.353-12.276-6.751-19.244-6.751zm-56 224h-272v-16h272zm-80-144h11.777c11.151 0 20.223 9.072 20.223 20.223 0 14.901-6.488 28.624-17.479 37.958-2.679-12.324-8.926-23.586-18.089-32.46 2.325-6.788 3.567-14.029 3.567-21.498v-4.223zm-56 16c-13.233 0-24 10.767-24 24v.871c-10.091-9.284-16-22.428-16-36.648v-69.741c0-10.304 1.128-20.523 3.314-30.482h73.372c2.186 9.959 3.314 20.178 3.314 30.482v69.741c0 14.22-5.909 27.364-16 36.648v-.871c0-13.233-10.767-24-24-24zm8 24v32c0 4.411-3.589 8-8 8s-8-3.589-8-8v-32c0-4.411 3.589-8 8-8s8 3.589 8 8zm-14.976-196.733c1.73-2.076 4.272-3.267 6.976-3.267s5.246 1.191 6.976 3.268c11.109 13.331 19.609 28.526 25.204 44.732h-64.359c5.595-16.206 14.094-31.401 25.203-44.733zm-43.005 188.585c-6.179 7.754-10.447 16.74-12.537 26.332-10.994-9.334-17.482-23.058-17.482-37.961 0-11.151 9.072-20.223 20.223-20.223h3.777v4.223c0 9.768 2.119 19.147 6.019 27.629zm-6.019-47.852h-3.777c-19.973 0-36.223 16.25-36.223 36.223 0 25.118 13.956 47.7 36.422 58.932l11.578 5.789v-12.944c0-9.133 2.541-17.921 7.261-25.529 4.667 5.574 10.296 10.407 16.739 14.257v11.273c0 13.233 10.767 24 24 24s24-10.767 24-24v-11.273c8.456-5.052 15.513-11.799 20.828-19.692 7.173 8.622 11.172 19.488 11.172 30.965v12.944l11.578-5.789c22.466-11.232 36.422-33.814 36.422-58.933 0-19.973-16.25-36.223-36.223-36.223h-11.777v-16h80v144h-272v-144h80zm-145.25-44.755c2.616-2.092 5.901-3.245 9.25-3.245s6.634 1.152 9.25 3.245l30.75 24.601v180.155h-80v-180.155zm16.226 249.488c-1.73 2.076-4.272 3.267-6.976 3.267s-5.246-1.191-6.976-3.268l-23.944-28.732h61.839zm384 0c-1.73 2.076-4.272 3.267-6.976 3.267s-5.246-1.191-6.976-3.268l-23.944-28.732h61.839zm33.024-44.733h-80v-180.154l30.75-24.601c2.616-2.092 5.901-3.245 9.25-3.245s6.634 1.152 9.25 3.245l30.75 24.601zm-40-64c-13.234 0-24 10.766-24 24s10.766 24 24 24 24-10.766 24-24-10.766-24-24-24zm0 32c-4.411 0-8-3.589-8-8s3.589-8 8-8 8 3.589 8 8-3.589 8-8 8zm8-104c0 4.418-3.582 8-8 8s-8-3.582-8-8 3.582-8 8-8 8 3.582 8 8zm-16-32c0-4.418 3.582-8 8-8s8 3.582 8 8-3.582 8-8 8-8-3.581-8-8zm-16 16c0-4.418 3.582-8 8-8s8 3.582 8 8-3.582 8-8 8-8-3.581-8-8zm32 0c0-4.418 3.582-8 8-8s8 3.582 8 8-3.582 8-8 8-8-3.581-8-8zm-392 16c13.234 0 24-10.766 24-24s-10.766-24-24-24-24 10.766-24 24 10.766 24 24 24zm0-32c4.411 0 8 3.589 8 8s-3.589 8-8 8-8-3.589-8-8 3.589-8 8-8zm-8 128h-16v-16h16v-16h16v16h16v16h-16v16h-16zm200-184c-13.234 0-24 10.766-24 24s10.766 24 24 24 24-10.766 24-24-10.766-24-24-24zm0 32c-4.411 0-8-3.589-8-8s3.589-8 8-8 8 3.589 8 8-3.589 8-8 8zm160-208c-13.234 0-24 10.766-24 24s10.766 24 24 24 24-10.766 24-24-10.766-24-24-24zm0 32c-4.411 0-8-3.589-8-8s3.589-8 8-8 8 3.589 8 8-3.589 8-8 8zm0-64c-48.523 0-88 39.477-88 88s39.477 88 88 88 88-39.477 88-88-39.477-88-88-88zm-60.831 126.445c2.977-3.999 7.695-6.445 12.831-6.445 8.822 0 16 7.178 16 16 0 5.135-2.446 9.854-6.445 12.831-9.012-5.716-16.67-13.373-22.386-22.386zm106.296 17.335c-7.619-1.221-13.465-7.822-13.465-15.779 0-8.822 7.178-16 16-16 6.878 0 12.862 4.366 15.077 10.673-4.479 8.116-10.477 15.28-17.612 21.106zm24.543-39.011c-5.776-5.469-13.556-8.769-22.008-8.769-17.645 0-32 14.355-32 32 0 10.592 5.177 19.994 13.129 25.821-8.913 3.96-18.764 6.179-29.129 6.179-8.101 0-15.886-1.365-23.159-3.843 4.532-5.585 7.159-12.645 7.159-20.157 0-17.645-14.355-32-32-32-7.512 0-14.571 2.627-20.157 7.159-2.478-7.273-3.843-15.058-3.843-23.159 0-39.701 32.299-72 72-72s72 32.299 72 72c0 5.775-.702 11.385-1.992 16.769zm-110.008-24.769c0 4.418-3.582 8-8 8s-8-3.582-8-8 3.582-8 8-8 8 3.582 8 8zm48 24c0 4.418-3.582 8-8 8s-8-3.582-8-8 3.582-8 8-8 8 3.582 8 8zm40-40c4.418 0 8 3.582 8 8s-3.582 8-8 8-8-3.582-8-8 3.582-8 8-8zm-451.842 109.864c2.792 2.792 6.386 4.199 10.875 4.199 8.237 0 19.488-4.736 34.323-14.335 4.011-2.595 8.192-5.507 12.487-8.666 8.114 3.176 16.931 4.939 26.157 4.939 39.701 0 72-32.299 72-72 0-9.226-1.763-18.043-4.939-26.157 3.16-4.295 6.071-8.476 8.666-12.487 14.831-22.921 18.052-37.283 10.136-45.199-8.26-8.259-22.314-2.056-26.932-.018-8.262 3.648-18.478 9.864-29.732 18.071-8.931-3.98-18.807-6.21-29.199-6.21-39.701 0-72 32.299-72 72 0 10.392 2.231 20.267 6.21 29.199-8.207 11.255-14.424 21.47-18.071 29.732-2.038 4.618-8.242 18.67.019 26.932zm139.842-85.864c0 30.878-25.122 56-56 56-3.654 0-7.224-.363-10.685-1.035 11.195-9.239 22.839-19.844 34.323-31.328s22.089-23.127 31.328-34.323c.671 3.462 1.034 7.032 1.034 10.686zm17.998-71.992c-.384 3.518-3.336 12.469-14.411 28.73-.329.484-.678.978-1.016 1.466-4.058-5.67-8.913-10.726-14.407-15.007 16.806-11.61 26.134-14.818 29.834-15.189zm-73.998 15.992c20.65 0 38.712 11.244 48.421 27.922-10.16 12.961-22.556 26.862-36.097 40.402s-27.442 25.937-40.402 36.097c-16.678-9.709-27.922-27.771-27.922-48.421 0-30.878 25.122-56 56-56zm-56.803 100.164c4.281 5.494 9.337 10.35 15.007 14.407-.488.338-.983.687-1.466 1.016-16.262 11.076-25.213 14.027-28.73 14.411.371-3.7 3.579-13.028 15.189-29.834zm200.803-92.164c0-13.234-10.766-24-24-24s-24 10.766-24 24 10.766 24 24 24 24-10.766 24-24zm-32 0c0-4.411 3.589-8 8-8s8 3.589 8 8-3.589 8-8 8-8-3.589-8-8zm-88 160c0 13.234 10.766 24 24 24s24-10.766 24-24-10.766-24-24-24-24 10.766-24 24zm32 0c0 4.411-3.589 8-8 8s-8-3.589-8-8 3.589-8 8-8 8 3.589 8 8zm160-120c0-13.234-10.766-24-24-24s-24 10.766-24 24 10.766 24 24 24 24-10.766 24-24zm-32 0c0-4.411 3.589-8 8-8s8 3.589 8 8-3.589 8-8 8-8-3.589-8-8zm64 112v16h-16v-16zm0 16h16v16h-16zm16-32v16h-16v-16zm0 32v-16h16v16z" fill="url(#SVGID_1_)"></path></svg>