<svg id="Capa_1" enable-background="new 0 0 512 512" height="512" viewBox="0 0 512 512" width="512" xmlns="http://www.w3.org/2000/svg"><g><g><g><path d="m256 512c-140.596 0-256-115.39-256-256s115.404-256 256-256 256 115.39 256 256-115.404 256-256 256z" fill="#3d69cc"></path></g></g><path d="m512 256c0-140.61-115.404-256-256-256v512c140.596 0 256-115.39 256-256z" fill="#3636b3"></path><g id="European_Union_1_"><g><path d="m211 211c8.291 0 15-6.709 15-15s-6.709-15-15-15h-30c-8.291 0-15 6.709-15 15v120c0 8.291 6.709 15 15 15h30c8.291 0 15-6.709 15-15s-6.709-15-15-15h-15v-30h15c8.291 0 15-6.709 15-15s-6.709-15-15-15h-15v-30z" fill="#ffdf40"></path><path d="m331 181c-8.291 0-15 6.709-15 15v90c0 8.276-6.738 15-15 15s-15-6.724-15-15v-90c0-8.291-6.709-15-15-15s-15 6.709-15 15v90c0 24.814 20.186 45 45 45s45-20.186 45-45v-90c0-8.291-6.709-15-15-15z" fill="#ffbe40"></path></g><g><circle cx="256" cy="436" fill="#ffdf40" r="15"></circle></g><g><circle cx="256" cy="76" fill="#ffdf40" r="15"></circle></g><g><circle cx="346" cy="411.885" fill="#ffbe40" r="15"></circle></g><g><circle cx="166" cy="100.115" fill="#ffdf40" r="15"></circle></g><g><circle cx="411.885" cy="346" fill="#ffbe40" r="15"></circle></g><g><circle cx="100.115" cy="166" fill="#ffdf40" r="15"></circle></g><g><circle cx="436" cy="256" fill="#ffbe40" r="15"></circle></g><g><circle cx="76" cy="256" fill="#ffdf40" r="15"></circle></g><g><circle cx="411.885" cy="166" fill="#ffbe40" r="15"></circle></g><g><circle cx="100.115" cy="346" fill="#ffdf40" r="15"></circle></g><g><circle cx="346" cy="100.115" fill="#ffbe40" r="15"></circle></g><g><circle cx="166" cy="411.885" fill="#ffdf40" r="15"></circle></g></g><g fill="#ffbe40"><path d="m271 76c0-8.286-6.716-15-15-15v30c8.284 0 15-6.716 15-15z"></path><path d="m271 436c0-8.286-6.716-15-15-15v30c8.284 0 15-6.716 15-15z"></path></g></g></svg>